<svg width="125" height="109" viewBox="0 0 125 109" fill="none" xmlns="http://www.w3.org/2000/svg">
<path d="M64.5029 25.6648C64.2704 26.4446 64.7145 27.2641 65.494 27.4966L65.5865 27.5242L65.5889 27.5214C66.3419 27.6934 67.1047 27.2514 67.3259 26.5044C69.4594 19.3356 76.18 14.3283 83.6685 14.3283C84.4818 14.3283 85.1414 13.6687 85.1414 12.8554C85.1414 12.0421 84.4818 11.3825 83.6685 11.3825C74.5862 11.3825 66.9537 17.4295 64.5029 25.6648ZM64.5029 25.6648L64.6467 25.7077M64.5029 25.6648C64.5029 25.6648 64.5029 25.6649 64.5029 25.6649L64.6467 25.7077M64.6467 25.7077C64.4378 26.4079 64.8366 27.144 65.5368 27.3528L64.6467 25.7077Z" fill="#FFC72C" stroke="#F9FFF9" stroke-width="0.3"/>
<path d="M102.189 77.679H94.2514C93.521 77.679 92.9285 77.0866 92.9285 76.3561C92.9285 75.6257 93.5209 75.0332 94.2514 75.0332H102.189C113.13 75.0332 122.033 66.1308 122.033 55.1894C122.033 44.2479 113.13 35.3456 102.189 35.3456H101.998C101.614 35.3456 101.25 35.1792 100.998 34.8891C100.747 34.5991 100.633 34.2144 100.688 33.8346C100.806 33.0106 100.866 32.1828 100.866 31.3768C100.866 21.8943 93.1503 14.1787 83.6678 14.1787C79.9788 14.1787 76.4607 15.3316 73.4935 17.5134C72.8415 17.9925 71.9155 17.7799 71.5384 17.0627C63.1351 1.06106 41.1865 -1.0878 29.8072 12.8322C25.0136 18.6965 23.1301 26.325 24.6394 33.76C24.8057 34.5812 24.1773 35.3466 23.3429 35.3466H22.8128C11.8714 35.3466 2.96897 44.249 2.96897 55.1904C2.96897 66.1318 11.8714 75.0342 22.8128 75.0342H30.7502C31.4806 75.0342 32.0731 75.6266 32.0731 76.3571C32.0731 77.0875 31.4807 77.68 30.7502 77.68H22.8128C10.4122 77.68 0.322998 67.5909 0.322998 55.1903C0.322998 43.1375 9.85362 33.2685 21.7743 32.7242C20.6545 25.0105 22.7958 17.2299 27.7585 11.1578C39.9417 -3.74678 63.2897 -2.07618 73.1595 14.5435C76.3081 12.5695 79.9111 11.5339 83.6674 11.5339C95.156 11.5339 104.26 21.3123 103.463 32.7365C115.274 33.399 124.678 43.2159 124.678 55.1893C124.678 67.5909 114.589 77.6791 102.188 77.6791L102.189 77.679Z" fill="#FFC72C"/>
<path d="M29.0998 75.6088C29.0998 93.9285 44.0037 108.832 62.3232 108.832C80.6428 108.832 95.5466 93.9282 95.5466 75.6088C95.5466 57.2891 80.6428 42.3854 62.3232 42.3854C44.0035 42.3854 29.0998 57.2894 29.0998 75.6088ZM32.0462 75.6088C32.0462 58.9145 45.6286 45.3319 62.3232 45.3319C79.0175 45.3319 92.6001 58.9143 92.6001 75.6088C92.6001 92.3031 79.0175 105.886 62.3232 105.886C45.6289 105.886 32.0462 92.3034 32.0462 75.6088Z" fill="#DF7046" stroke="#F9FFF9" stroke-width="0.3"/>
<path d="M61.8107 88.923C61.8107 89.5406 62.3116 90.0415 62.9292 90.0415C63.5468 90.0415 64.0478 89.5413 64.0478 88.923V63.741C64.0478 63.1234 63.5468 62.6225 62.9292 62.6225C62.3116 62.6225 61.8107 63.1234 61.8107 63.741V88.923Z" fill="#DF7046" stroke="#DF7046" stroke-width="0.3"/>
<path d="M62.9287 65.325L55.9715 72.2821C55.5352 72.7193 54.8265 72.7192 54.3895 72.2822C53.9525 71.8452 53.9525 71.1373 54.3895 70.7003L62.1376 62.9523C62.1376 62.9522 62.1377 62.9522 62.1377 62.9522C62.5741 62.5151 63.2827 62.5153 63.7196 62.9522L71.4678 70.7003C71.9047 71.1372 71.9047 71.845 71.468 72.282C71.2496 72.5012 70.9624 72.6098 70.6769 72.6098L62.9287 65.325ZM62.9287 65.325L69.8859 72.2822C70.104 72.5003 70.391 72.6098 70.6768 72.6098L62.9287 65.325Z" fill="#DF7046" stroke="#DF7046" stroke-width="0.3"/>
</svg>
