<svg width="106" height="79" viewBox="0 0 106 79" fill="none" xmlns="http://www.w3.org/2000/svg">
<path d="M93.334 47.4745L99.3412 27.3608L94.9766 48C94.9766 48 103.988 45.3723 105.677 36.1993C107.367 27.0264 101.876 19 101.876 19C101.876 19 90.2833 25.1154 89.157 33.5C88.0307 41.8847 93.334 47.4745 93.334 47.4745Z" fill="#FDCB08"/>
<path d="M0 64.166L100 48.166V51.666L14 66.166L0 64.166Z" fill="#FDCB08"/>
<path d="M31.9597 58.0996C31.9597 58.0996 30.0582 72.24 30.0011 73.964C29.944 75.6879 32.1505 75.412 32.1505 75.412C32.1505 75.412 32.9781 78.9977 34.495 78.9977C36.0121 78.9977 36.9086 77.2049 36.9086 77.2049C36.9086 77.2049 37.0513 68.383 44.2868 60.5175C45.6432 59.043 49.0103 58.673 50.4929 58.0868C57.7218 55.2289 64.0772 43.7612 64.0772 43.7612C64.0772 43.7612 68.7662 35.3485 67.2492 29.5563C65.7321 23.764 62.905 19.0059 62.905 19.0059L61.181 15.5582L61.319 13.0758C61.319 13.0758 64.7668 9.05038 65.0427 5.74058C65.3184 2.43065 70.99 0 70.99 0C70.99 0 67.344 0.439514 63.3876 2.52543C61.0847 3.73964 62.0027 0.482651 53.7338 3.7667C47.0709 6.41292 47.6657 16.3856 47.6657 16.3856C47.6657 16.3856 46.8037 19.1439 44.7914 20.3639C43.7216 21.0125 34.9468 27.0068 32.6332 46.7608C31.7368 54.4148 31.9597 58.0996 31.9597 58.0996Z" fill="#A25743"/>
</svg>
