<svg width="154" height="155" viewBox="0 0 154 155" fill="none" xmlns="http://www.w3.org/2000/svg">
<path d="M88.197 31.8967C89.5001 31.8584 89.7301 30.264 88.9635 29.3901C88.8104 29.2459 88.6292 29.1346 88.4312 29.0634C88.2332 28.9922 88.0227 28.9625 87.8127 28.9762C87.6028 28.9898 87.3979 29.0466 87.2108 29.1428C87.0237 29.2391 86.8584 29.3729 86.7253 29.5358C85.7978 30.6319 86.411 32.2646 88.197 31.8967ZM88.5956 29.9344C89.0402 30.5016 89.0172 31.4674 88.1664 31.6361C87.4841 31.6361 86.9016 31.4061 86.9016 30.7239C86.9092 29.7734 88.0054 29.1985 88.5956 29.965V29.9344ZM94.5899 31.7587C95.893 31.7204 96.1229 30.126 95.3564 29.2522C95.2067 29.1013 95.0264 28.9842 94.8276 28.9089C94.6288 28.8335 94.4162 28.8017 94.2041 28.8155C93.992 28.8293 93.7853 28.8884 93.598 28.9889C93.4107 29.0893 93.247 29.2288 93.1181 29.3978C92.1983 30.4863 92.7962 32.1266 94.5899 31.7587ZM94.9885 29.7964C95.4331 30.3636 95.4024 31.3295 94.5592 31.4981C93.877 31.4981 93.2944 31.2681 93.2944 30.5859C93.2944 29.6354 94.3982 29.0375 94.9885 29.7964Z" fill="#F58346"/>
<path d="M99.0664 39.976C121.012 38.1823 114.305 14.9641 94.8888 15.447C73.0734 16.0526 66.5195 42.6435 99.0664 39.976ZM80.8766 21.5333C87.0855 15.401 99.465 13.9599 106.939 19.6936C115.317 26.0864 114.382 38.4583 99.0128 39.7077C90.6652 40.3822 84.9469 38.9948 81.4592 36.6876C75.7179 32.8856 76.0628 26.3087 80.8766 21.5333Z" fill="#F58346"/>
<path d="M100.515 31.498C101.818 31.498 102.086 29.8653 101.282 28.9914C101.128 28.8471 100.947 28.7359 100.749 28.6647C100.551 28.5935 100.341 28.5638 100.131 28.5774C99.9209 28.5911 99.716 28.6478 99.5289 28.7441C99.3418 28.8404 99.1765 28.9741 99.0434 29.137C98.1159 30.2409 98.7444 31.8659 100.515 31.498ZM100.914 29.5356C101.358 30.1029 101.328 31.0687 100.484 31.245C99.8099 31.245 99.2197 31.0074 99.2197 30.3252C99.2273 29.3823 100.323 28.7768 100.914 29.5356ZM74.568 84.2276C75.0203 83.99 76.0091 82.9628 75.8558 82.4799C76.1471 81.7134 80.662 67.2949 81.9037 62.6421C82.0914 62.1534 82.18 61.6323 82.1644 61.109C82.08 60.9404 81.9421 60.9251 81.7734 60.9174L67.1634 61.1474C66.9257 50.117 65.8449 19.1338 64.6185 8.94663C64.8331 8.94663 65.0707 8.94663 65.1397 8.68601C65.4003 7.73551 65.6226 6.04148 64.8868 5.3976C63.0931 3.82621 5.48064 5.24429 4.74478 5.51258C4.00891 5.78086 3.97824 7.93481 4.11622 8.85465C4.11622 9.07694 4.49182 9.16126 4.70645 9.21492C3.32669 18.0224 4.63746 79.1225 5.84858 84.3962C5.9099 84.6569 5.99422 84.9098 6.21651 84.9635C6.72059 85.0839 7.23308 85.1659 7.74958 85.2088C8.57743 91.6553 14.2344 92.8741 20.7346 91.8392C26.8368 90.8058 32.6394 88.4513 37.7363 84.9405C42.5424 84.7718 37.5063 84.9865 46.467 85.0248C49.1576 85.0095 73.2803 84.9251 74.568 84.2276ZM38.4108 80.0347C39.9439 80.0347 41.8908 80.234 43.01 81.3761C43.2246 81.5984 43.7765 82.2653 43.5082 82.4033C42.803 82.7789 39.2693 82.6485 38.3111 82.6639L38.4108 80.0347ZM38.2652 82.9168L39.369 83.0318C39.3811 83.4518 39.5027 83.8613 39.7216 84.2199L38.1885 84.2736L38.2652 82.9168ZM81.5051 61.5766C80.9839 63.9682 76.0474 80.0347 75.3729 82.1273C69.4783 81.882 60.6632 82.2193 48.7436 82.5489C49.2725 80.7629 54.2703 63.6922 54.8759 62.0289C54.9142 61.9522 81.4285 61.5766 81.5051 61.5766ZM4.41517 8.79333C4.22353 7.51322 4.53015 5.87285 4.83676 5.72721C5.27368 5.56623 61.7517 4.70005 64.4728 5.88051C64.6623 6.14283 64.7569 6.46181 64.7411 6.78502C64.7621 7.3016 64.7052 7.8184 64.5725 8.31808C64.5035 8.31808 21.3862 9.36823 16.2811 9.36056C14.978 9.36056 5.36567 9.39122 4.41517 8.79333ZM7.80323 27.2744C7.75724 26.8681 7.71125 25.6263 7.67292 23.9783C9.2903 24.5379 18.0977 24.5532 19.8148 24.5532C21.0642 24.5532 42.941 24.0626 46.4977 23.917C47.7471 23.871 60.2952 23.2424 61.5754 23.0891C61.5993 24.1478 61.5686 25.207 61.4834 26.2626C61.4374 26.2626 28.0703 27.558 23.7701 27.6423C22.2293 27.6653 9.15233 27.9643 7.80323 27.2744ZM61.5064 19.0572C24.2376 19.9004 8.97602 20.4139 7.61926 19.8237V15.6998C10.6854 16.4663 38.4261 15.8071 40.8407 15.7458C43.4469 15.6691 59.7203 14.9792 61.3837 14.8642C61.422 16.2363 61.4757 17.7004 61.5064 19.0572ZM7.61926 20.1303C10.1948 20.9812 39.2003 20.253 40.9403 20.1993C43.5619 20.1303 60.1036 19.3944 61.514 19.3255C61.514 20.5749 61.5677 21.7707 61.5754 22.8285C36.7934 23.4571 9.67357 24.5992 7.66526 23.7023C7.66526 22.6292 7.66526 21.4104 7.61926 20.1303ZM61.3224 14.6343C34.6165 15.2398 9.19832 15.9987 7.57327 15.4621V11.9744C10.5397 12.787 38.7251 12.0894 40.8254 12.0281C43.3319 11.9591 58.4556 11.2616 61.1078 11.1619C61.2381 12.1431 61.3224 13.3389 61.3224 14.6343ZM61.1231 10.8936C29.0361 11.6602 9.04501 12.2427 7.6116 11.7138C7.6116 11.1082 7.6116 10.1807 7.70358 9.55986C18.6113 10.2267 42.8183 9.49087 60.9698 9.06928C61.0618 9.57519 61.1154 10.3647 61.1538 10.886L61.1231 10.8936ZM6.47713 84.3886C5.31201 80.7246 3.66397 18.26 4.94407 9.26858C5.77444 9.40091 6.61106 9.49045 7.45063 9.53686C7.19001 12.5033 7.19001 26.1322 7.36631 27.3894C7.37979 27.4482 7.40599 27.5034 7.44306 27.5511C7.48014 27.5988 7.5272 27.6378 7.58094 27.6653C8.24741 27.8848 8.94164 28.0087 9.64291 28.0332C9.46786 30.7019 9.54228 33.381 9.8652 36.0358C7.40464 36.3271 7.17468 40.1214 10.4938 39.5312C12.8777 39.4316 12.3564 36.0588 10.1565 36.0205C10.3289 33.3638 10.2442 30.6966 9.90353 28.0562C12.7167 28.2632 17.8295 28.2939 23.7854 28.2172C28.0856 28.1559 60.8318 26.9601 61.399 26.9141C61.698 26.9141 61.9893 26.9141 62.0659 26.6382C62.5488 24.8598 61.8743 11.0163 61.6367 9.04628L64.0512 8.98496C65.247 19.1568 66.2665 49.3275 66.5195 61.1704C64.1049 61.2087 55.1978 61.3313 54.6459 61.477C54.4926 61.523 54.4389 61.6379 54.3623 61.8372C54.094 62.5501 53.5038 64.5968 53.2892 65.3326C49.7159 62.456 45.6444 60.2605 41.2776 58.8554C41.3545 58.4187 41.4543 57.9863 41.5766 57.56C42.4896 57.5267 43.378 57.2543 44.1528 56.77C44.9276 56.2858 45.5617 55.6066 45.9918 54.8005C46.9193 53.2674 47.5248 50.8529 47.4635 47.0585C47.5269 47.0774 47.5941 47.0796 47.6586 47.0648C47.7231 47.05 47.7826 47.0188 47.8315 46.9742C48.1299 46.7354 48.3886 46.4508 48.598 46.131C48.9735 44.7153 48.8629 43.2145 48.2837 41.8691C47.6858 40.1061 47.4175 38.895 45.9841 37.3466C44.8703 36.116 43.3842 35.2841 41.7529 34.978C40.3119 34.8503 38.8597 34.9565 37.4526 35.2923C36.8204 35.4805 36.2299 35.7874 35.7126 36.1968C35.3988 36.4618 35.1386 36.7845 34.9461 37.1473C34.5705 37.6685 33.689 37.7069 33.0068 38.0365C31.6186 38.9352 30.5882 40.291 30.0939 41.8691C29.7497 42.8552 29.5685 43.8908 29.5574 44.9352C28.9901 44.3067 28.0933 43.5708 27.3344 43.9388C26.5756 44.3067 25.8627 46.8286 25.8704 48.055C25.878 49.2815 26.3456 49.2738 27.4647 49.2738C26.9548 49.7009 26.5308 50.2212 26.2153 50.8069C25.6941 51.6271 25.7171 51.6807 24.8585 52.0333C24.4216 52.2173 24.023 52.2939 24.023 52.6235C24.0217 52.69 24.041 52.7551 24.0783 52.8102C24.1155 52.8652 24.1688 52.9073 24.231 52.9308C24.2931 52.9543 24.361 52.9581 24.4253 52.9415C24.4896 52.9249 24.5472 52.8888 24.5903 52.8382L25.1038 52.6312C25.4724 52.5232 25.8123 52.3344 26.0987 52.0785C26.3852 51.8226 26.6109 51.506 26.7595 51.1518C27.4034 50.14 27.848 49.5191 29.0591 49.2661C28.4166 49.707 27.8877 50.294 27.5159 50.9789C27.1442 51.6638 26.9401 52.4271 26.9205 53.2061C25.786 54.0186 24.1073 55.4214 23.5171 56.6785C22.9269 57.9356 22.5513 59.8213 23.6091 60.4575C18.2209 63.0512 13.9113 67.4502 11.4289 72.8906C9.32863 76.2633 7.39697 80.6326 7.68059 84.6262C7.27515 84.5705 6.87331 84.4912 6.47713 84.3886ZM10.0798 36.6337C10.4163 36.6268 10.7442 36.7404 11.0043 36.9541C11.2644 37.1677 11.4394 37.4674 11.4979 37.7988C11.7355 38.8413 10.831 39.6232 9.42061 39.1403C8.0102 38.6574 8.63875 36.7104 10.0798 36.6567V36.6337ZM29.4807 45.9931C29.6367 46.7509 29.9762 47.4589 30.4695 48.055C30.4767 48.1315 30.4767 48.2085 30.4695 48.285C29.2141 48.576 27.9206 48.6665 26.6369 48.5533C26.5281 48.2645 26.5041 47.9507 26.5679 47.6488C26.6454 46.5536 26.962 45.4886 27.4954 44.529C28.055 44.2454 29.1281 45.4488 29.4807 45.9931ZM30.9065 59.0931C33.3057 59.185 33.3824 56.2492 33.8653 56.0269C34.422 55.6835 34.8595 55.1771 35.1187 54.5765C35.3779 53.9759 35.446 53.3102 35.314 52.6695C35.314 52.5316 34.4095 50.6536 34.3022 50.324C33.9726 49.3428 33.0374 48.3846 33.9343 47.4801C34.4938 46.8286 35.0151 47.5951 35.383 48.3616C35.4037 48.4158 35.4378 48.4638 35.482 48.5014C35.5262 48.5389 35.5792 48.5646 35.636 48.5763C36.1495 48.6682 36.8088 47.5108 37.33 47.2578C38.2515 46.8982 39.1026 46.3793 39.8442 45.7248C40.4038 45.1729 40.787 44.0461 41.4233 43.7318C42.6042 43.2629 43.8187 42.8837 45.0566 42.5973C45.3249 43.4558 44.8803 43.5555 46.8426 46.2C46.9576 46.3533 47.0419 46.5833 47.1492 46.7673C47.1527 46.8311 47.1527 46.8951 47.1492 46.9589C47.2642 50.7302 46.536 53.0911 45.6162 54.6242C45.1976 55.3721 44.5834 55.9919 43.8393 56.4173C43.0952 56.8427 42.2495 57.0575 41.3926 57.0388C41.3356 57.0344 41.2789 57.0494 41.2315 57.0815C41.1842 57.1135 41.1491 57.1606 41.132 57.2151C41.132 57.2151 40.8637 58.1426 40.764 58.6791C40.6414 59.3307 40.764 59.2847 41.4079 59.5223C43.01 60.0546 44.5681 60.7107 46.0684 61.4846C45.2829 63.7696 44.1336 65.9128 42.665 67.8315C42.3431 68.2224 41.4386 69.8092 40.8254 69.6099C39.3766 69.1193 31.374 61.8066 29.3274 59.461L29.1281 59.2387C29.7176 59.1557 30.3114 59.107 30.9065 59.0931ZM13.5982 70.1388C13.5757 70.1458 13.5517 70.1458 13.5292 70.1388C13.5481 70.1565 13.5724 70.1673 13.5982 70.1694V70.1388ZM20.6273 91.18C16.7027 91.7933 11.5592 91.7779 9.45894 88.4129C6.30083 83.3844 9.57392 75.9184 12.9696 71.0509C13.1153 70.8363 13.4909 70.2844 13.6595 70.1158C17.0642 64.8105 22.3397 60.9797 28.4382 59.3843C29.519 60.9174 38.8477 69.6175 40.6491 70.2231C41.7605 70.591 42.6191 68.9353 43.1786 68.2301C44.689 66.2544 45.8623 64.0425 46.651 61.6839C48.9588 62.8334 51.1356 64.2289 53.1435 65.8462C52.2665 68.8743 51.4156 71.9098 50.591 74.9526C50.4147 73.7427 50.0554 72.5667 49.5255 71.4649C49.512 71.4354 49.4881 71.4121 49.4584 71.3993C49.4286 71.3865 49.3952 71.3853 49.3646 71.3958C49.334 71.4063 49.3084 71.4279 49.2928 71.4562C49.2772 71.4846 49.2727 71.5177 49.2802 71.5492C49.3622 72.5009 49.5447 73.4413 49.8244 74.3547C49.9598 74.8243 50.1368 75.2809 50.3533 75.7191C49.3952 79.1532 48.5903 82.0507 48.4447 82.5642C43.4929 82.7099 43.9835 82.7252 44.0295 82.6486C44.3437 82.1273 43.7995 81.4144 43.3779 80.9852C42.8774 80.5332 42.2909 80.1869 41.6534 79.967C41.0159 79.747 40.3406 79.6579 39.6679 79.7051C39.2528 79.7058 38.8382 79.7314 38.4261 79.7817L38.4721 78.8772C38.4758 78.8125 38.4583 78.7484 38.4224 78.6945C38.3864 78.6405 38.334 78.5998 38.2728 78.5783C34.6318 77.2982 28.9288 76.1407 24.5289 76.409C25.2185 74.3432 25.6385 72.1971 25.7784 70.0238C25.781 69.9922 25.7721 69.9606 25.7531 69.9352C25.7342 69.9097 25.7066 69.892 25.6756 69.8854C25.6445 69.8788 25.6121 69.8838 25.5845 69.8994C25.5568 69.915 25.5358 69.9401 25.5254 69.9701C24.8488 72.0643 24.4192 74.2304 24.2453 76.4243C21.9754 76.5004 19.774 77.2209 17.8984 78.5016C17.8866 78.5131 17.8772 78.5267 17.8708 78.5419C17.8644 78.557 17.8611 78.5733 17.8611 78.5898C17.8611 78.6062 17.8644 78.6225 17.8708 78.6376C17.8772 78.6528 17.8866 78.6665 17.8984 78.6779C18.2051 79.0919 19.4315 76.6773 25.924 76.7846C29.9864 76.9798 34.0001 77.7542 37.8436 79.0842L37.5599 84.2583C32.4971 87.7954 26.7149 90.1695 20.6273 91.2107V91.18Z" fill="#F58346"/>
<path d="M64.0818 74.1556C65.7073 74.2745 67.3392 74.2745 68.9646 74.1556C69.0087 74.1526 69.0515 74.1399 69.09 74.1184C69.1285 74.0968 69.1618 74.0671 69.1874 74.0312C69.2131 73.9953 69.2304 73.9541 69.2383 73.9107C69.2462 73.8673 69.2443 73.8227 69.2329 73.78C69.1716 73.0748 67.7459 70.9899 67.2246 70.4456C66.964 70.1697 66.8873 70.1774 66.6191 70.4456C65.6342 71.4105 64.7671 72.4886 64.0358 73.6574C63.9439 73.8567 63.9132 74.0483 64.0818 74.1556ZM66.9027 70.4456C67.2572 70.8418 67.5586 71.2825 67.7995 71.7564C68.1711 72.3849 68.494 73.0409 68.7653 73.7187C68.0755 73.7187 65.27 73.803 64.4958 73.7187C65.2251 72.5759 66.0292 71.4825 66.9027 70.4456ZM72.8203 43.4254C74.0526 43.3224 75.2266 42.8555 76.193 42.084C77.1813 41.4014 78.0469 40.5565 78.7532 39.5851C78.9219 39.3245 78.5463 39.2632 78.5386 39.4625C77.3153 40.5112 76.0192 41.4717 74.66 42.337C74.0797 42.7091 73.4501 42.998 72.7896 43.1955C72.7699 43.2091 72.7543 43.228 72.7446 43.2499C72.7349 43.2719 72.7315 43.296 72.7346 43.3198C72.7378 43.3436 72.7475 43.3661 72.7626 43.3847C72.7777 43.4033 72.7977 43.4174 72.8203 43.4254ZM78.5309 39.4778C78.5378 39.5198 78.5595 39.5579 78.5923 39.5851C78.5715 39.576 78.5538 39.561 78.5415 39.5419C78.5292 39.5228 78.5229 39.5005 78.5233 39.4778H78.5309ZM42.412 52.6928C42.4023 52.7253 42.4057 52.7603 42.4215 52.7904C42.4372 52.8205 42.4641 52.8432 42.4963 52.8538C42.6803 52.9457 42.9486 53.099 43.2629 53.214C43.8378 53.444 44.4127 53.4363 44.5966 52.8461C44.6927 52.2443 44.6927 51.6312 44.5966 51.0294C44.5295 50.452 44.3983 49.8838 44.2057 49.3354C44.1996 49.3008 44.18 49.2701 44.1513 49.25C44.1225 49.2298 44.087 49.222 44.0524 49.2281C44.0178 49.2342 43.9871 49.2537 43.967 49.2825C43.9469 49.3112 43.939 49.3468 43.9451 49.3814V50.5772C44.0079 51.2759 44.0079 51.9788 43.9451 52.6775C43.9451 52.7464 43.8684 52.7618 43.8071 52.7694C43.1326 52.8384 42.4887 52.4552 42.412 52.6928ZM41.9751 49.5807C41.9785 49.4382 41.9991 49.2966 42.0364 49.1591C42.0571 49.1218 42.0702 49.0809 42.075 49.0386C42.0798 48.9963 42.0762 48.9534 42.0645 48.9125C42.0527 48.8716 42.033 48.8334 42.0065 48.8C41.98 48.7667 41.9472 48.739 41.9099 48.7183C41.8727 48.6977 41.8318 48.6846 41.7894 48.6798C41.7471 48.675 41.7043 48.6785 41.6634 48.6903C41.6224 48.702 41.5842 48.7217 41.5509 48.7482C41.5176 48.7747 41.4898 48.8076 41.4692 48.8448C41.369 49.0877 41.3194 49.3486 41.3235 49.6113C41.3387 49.689 41.3813 49.7587 41.4435 49.8076C41.5057 49.8565 41.5835 49.8813 41.6626 49.8776C41.7416 49.8739 41.8167 49.8418 41.8741 49.7873C41.9315 49.7328 41.9673 49.6594 41.9751 49.5807ZM46.237 49.573C46.2447 49.5149 46.2361 49.4558 46.212 49.4024C46.1879 49.349 46.1494 49.3034 46.1008 49.2707C46.0522 49.238 45.9954 49.2196 45.9368 49.2175C45.8783 49.2153 45.8203 49.2296 45.7694 49.2587C45.4858 49.4044 45.6085 49.7953 45.6085 50.0253C45.6085 50.1106 45.6424 50.1925 45.7027 50.2529C45.7631 50.3133 45.845 50.3472 45.9304 50.3472C46.0158 50.3472 46.0977 50.3133 46.158 50.2529C46.2184 50.1925 46.2523 50.1106 46.2523 50.0253C46.2396 49.8749 46.2345 49.7239 46.237 49.573ZM41.0016 47.1508C41.3373 47.1102 41.6775 47.131 42.0058 47.2121C42.7723 47.3577 42.7723 47.4804 42.8413 47.3577C42.9103 47.2351 42.435 46.7752 42.1974 46.6602C41.7902 46.4918 41.3432 46.4439 40.9096 46.5222C40.4497 46.6065 39.7828 47.0281 39.8748 47.2044C39.9668 47.3807 39.9668 47.2351 41.0016 47.1508ZM45.9457 47.8406L46.191 47.925C46.2677 47.925 46.7506 48.0476 46.8042 47.9786C46.8579 47.9096 46.6049 47.4574 46.398 47.3347C45.7464 46.9515 45.1179 47.4037 45.2175 47.6107C45.4557 47.701 45.6988 47.7778 45.9457 47.8406ZM42.6573 54.8314C42.4653 54.7985 42.2809 54.7309 42.1131 54.6321C41.9061 54.5299 41.7151 54.3982 41.5458 54.2412C41.2469 53.9882 40.9403 53.7506 40.879 53.6816C40.8608 53.6566 40.8344 53.6389 40.8044 53.6316C40.7745 53.6243 40.7428 53.6278 40.7152 53.6416C40.6876 53.6554 40.6658 53.6786 40.6537 53.707C40.6416 53.7353 40.6399 53.7671 40.649 53.7966C40.8176 54.8161 41.8984 55.5289 42.7186 55.0844C42.9256 55.0537 42.8259 54.7931 42.6573 54.8314ZM146.561 73.6574C146.768 73.6574 147.013 73.6574 147.082 73.3968C147.342 72.4539 147.565 70.7523 146.829 70.1084C145.012 68.5293 87.415 69.9474 86.6868 70.2157C85.9586 70.484 85.9203 72.6302 86.0583 73.5501C86.0583 73.7724 86.4339 73.8644 86.6485 73.918C85.5294 81.0697 86.2882 116.499 86.5029 124.264C84.5942 122.953 79.1825 119.45 76.9059 119.082C76.4843 119.021 76.9059 117.342 75.8098 116.782C75.6525 116.703 75.4706 116.687 75.3019 116.738C75.1333 116.79 74.9911 116.904 74.9053 117.058C74.6607 117.464 74.4627 117.896 74.315 118.346C74.1387 118.499 73.4948 118.446 73.2649 118.423C71.5938 118.246 69.8078 117.656 69.3326 118.538C69.2468 118.722 69.2192 118.927 69.2534 119.127C69.2876 119.327 69.3821 119.512 69.5242 119.657C70.3444 120.423 73.6635 121.359 74.5373 121.727C75.3038 123.206 79.6347 134.704 87.0548 139.671C87.1008 140.69 87.4534 148.938 87.9669 149.544C88.6491 150.31 99.7638 150.103 100.699 150.188C106.831 150.701 132.993 149.046 148.27 148.655C148.416 148.655 148.623 148.54 148.745 148.202C150.401 143.481 147.802 84.0209 146.561 73.6574ZM86.3496 73.4888C86.1656 72.2087 86.4645 70.5683 86.7711 70.4226C87.0778 70.277 143.494 69.3802 146.407 70.576C146.598 70.8374 146.693 71.157 146.676 71.4805C146.696 71.9966 146.642 72.5129 146.515 73.0135C146.446 73.0135 103.328 74.0637 98.2231 74.056C97.0656 74.0867 87.2617 74.1173 86.3496 73.5194V73.4888ZM139.593 129.361C141.126 132.105 143.165 138.56 144.054 141.587C141.386 141.825 131.207 142.821 129.544 143.182C129.467 143.182 129.544 143.312 129.237 141.649C129.068 140.721 128.332 137.716 128.294 137.563C127.919 136.114 127.75 135.685 127.528 134.873C127.517 134.843 127.496 134.817 127.469 134.802C127.441 134.786 127.408 134.781 127.377 134.788C127.346 134.794 127.319 134.812 127.3 134.838C127.281 134.863 127.272 134.895 127.275 134.926C127.367 135.693 127.466 136.582 127.62 137.364C127.62 137.44 130.187 148.647 130.21 148.724C127.788 148.839 102.385 150.126 100.139 149.567C100.362 147.091 100.653 144.906 100.952 143.067C100.952 142.99 103.842 128.127 103.88 127.951C103.888 127.919 103.883 127.886 103.867 127.858C103.852 127.829 103.826 127.808 103.796 127.797C103.765 127.787 103.732 127.788 103.702 127.801C103.672 127.814 103.648 127.837 103.635 127.866C102.64 130.453 102.071 133.184 101.948 135.953C100.929 134.827 92.5278 125.521 91.9836 124.532C94.8728 122.014 98.1103 119.925 101.596 118.331C104.853 116.807 108.339 115.829 111.913 115.433C111.491 115.708 111.139 116.078 110.886 116.514C110.603 117.15 111.3 118.116 111.975 118.361C116.459 120.002 120.123 118.883 122.154 116.591C122.599 116.093 122.576 115.985 122.591 115.694C130.026 117.756 135.522 121.949 139.593 129.392V129.361ZM130.77 148.463C130.387 146.93 130.249 145.857 129.842 143.81C130.088 143.772 142.713 142.277 144.192 142.101C144.805 144.023 145.261 145.992 145.556 147.988C143.556 148.088 132.748 148.731 130.77 148.463ZM111.99 106.818C112.658 104.46 113.692 102.222 115.056 100.187C116.351 100.555 117.724 100.555 119.019 100.187C118.912 100.693 119.441 100.954 119.939 101.122C119.825 101.302 119.749 101.502 119.713 101.711C119.678 101.92 119.684 102.134 119.732 102.341C119.765 102.534 119.842 102.717 119.958 102.876C120.074 103.034 120.225 103.163 120.399 103.253C120.654 103.379 120.929 103.459 121.211 103.491C121.066 103.754 120.99 104.049 120.99 104.349C120.99 104.65 121.066 104.945 121.211 105.208C121.35 105.425 121.536 105.609 121.756 105.744C121.625 105.866 121.511 106.005 121.418 106.158C120.943 107.093 120.69 108.673 121.694 109.017C121.864 109.068 122.047 109.049 122.203 108.966C122.359 108.883 122.477 108.742 122.53 108.573C122.844 107.906 123.404 107.676 123.687 108.328C124.055 109.163 122.583 109.968 122.193 110.627C122.009 110.926 121.648 111.294 121.863 111.731C121.947 111.907 121.917 111.731 121.924 112.13C122.001 116.062 122.124 115.686 121.687 116.177C119.816 118.262 116.405 119.304 112.189 117.756C112 117.671 111.833 117.544 111.7 117.385C111.567 117.225 111.472 117.038 111.423 116.836C111.423 116.775 111.461 116.721 111.515 116.652C111.999 116.135 112.551 115.687 113.155 115.318C113.393 115.142 113.446 115.027 113.577 114.552C113.707 114.077 113.753 113.632 113.845 113.356C114.274 112.076 110.725 112.122 111.99 106.818ZM119.525 91.9008C119.155 91.691 118.735 91.5878 118.31 91.6027C117.885 91.6176 117.472 91.75 117.118 91.9852C114.872 92.0695 91.7153 93.02 89.7453 91.9852C89.6916 91.5789 89.6456 90.3448 89.615 88.6891C91.2324 89.2563 100.04 89.264 101.757 89.2716C102.999 89.2716 124.875 88.7811 128.44 88.6354C130.026 88.5664 143.165 87.8689 143.517 87.7999C143.54 88.8587 143.507 89.918 143.418 90.9733C143.418 90.9733 130.348 91.5022 119.525 91.9008ZM143.448 83.7909C106.801 84.6188 90.9257 85.14 89.5536 84.5575V80.4335C92.6198 81.2001 120.361 80.5485 122.783 80.4795C125.389 80.4029 141.655 79.713 143.318 79.6057C143.341 80.9701 143.41 82.4035 143.448 83.7909ZM89.5613 84.8641C92.1292 85.7073 121.119 84.9791 122.875 84.9331C125.504 84.8564 142.038 84.1205 143.456 84.0516C143.456 85.301 143.51 86.5045 143.517 87.5546C121.112 88.1525 91.6309 89.3559 89.6073 88.4284C89.5843 87.363 89.569 86.1365 89.5613 84.8641ZM143.295 79.3527C113.899 80.0196 91.171 80.7171 89.5383 80.1882V76.7005C92.4971 77.5131 120.682 76.8078 122.79 76.7465C124.776 76.6929 141.187 76.0336 143.073 75.8957C143.172 76.8845 143.241 78.0726 143.295 79.3527ZM143.096 75.6121C113.508 76.2866 91.079 76.9841 89.5843 76.4322C89.5843 75.8267 89.5843 74.8992 89.6763 74.2783C100.576 74.9452 124.86 74.2093 142.935 73.7877C142.996 74.3166 143.057 75.0908 143.096 75.6121ZM86.9015 74.0023C87.732 74.1321 88.5686 74.2191 89.408 74.263C89.1244 77.2448 89.1321 90.8507 89.3084 92.1155C89.3178 92.1759 89.3424 92.2329 89.38 92.2812C89.4175 92.3295 89.4667 92.3674 89.523 92.3914C90.1863 92.6141 90.8781 92.7406 91.5773 92.767C91.3912 95.4331 91.4682 98.111 91.8072 100.762C89.3467 101.061 89.1091 104.848 92.4281 104.265C94.8044 104.158 94.3138 100.785 92.0909 100.747C92.2677 98.09 92.183 95.4224 91.8379 92.7823C97.3493 93.1886 107.682 92.905 113.209 92.7287C112.841 92.9558 112.515 93.2435 112.243 93.5795C110.971 95.0513 112.09 97.6958 113.385 99.1216C113.722 99.4906 114.129 99.79 114.581 100.003C112.281 103.383 109.499 109.155 112.281 112.168C112.637 112.465 112.965 112.794 113.262 113.149C113.14 113.548 113.017 114.391 112.864 114.759C112.657 114.904 112.711 114.881 112.603 114.889C108.711 115.251 104.913 116.302 101.389 117.994C97.8522 119.636 94.5813 121.799 91.6846 124.409C91.585 124.509 91.608 124.609 92.7348 125.942L90.5271 127.407C89.4533 126.376 88.2886 125.445 87.0471 124.624C86.7865 116.736 85.8513 81.2537 86.9015 74.0023ZM92.0219 101.39C92.3522 101.383 92.6744 101.493 92.9313 101.7C93.1882 101.908 93.363 102.2 93.4246 102.525C93.6699 103.567 92.7654 104.357 91.355 103.866C89.9446 103.376 90.5808 101.436 92.0219 101.39ZM79.6501 130.473C77.9314 127.618 76.4299 124.638 75.1582 121.558C75.0356 121.305 75.0202 121.251 74.522 121.067C73.0197 120.622 71.556 120.055 70.1451 119.373C70.0603 119.32 69.983 119.255 69.9151 119.182C69.8078 118.86 69.9151 118.814 70.1374 118.768C71.1416 118.591 73.2036 119.281 74.246 119.059C74.4092 119.049 74.565 118.987 74.6905 118.882C74.816 118.777 74.9046 118.635 74.9436 118.476C74.9972 118.338 75.3498 117.265 75.5415 117.357C76.3617 117.771 75.7254 119.527 76.8216 119.695C79.4354 120.071 88.8791 126.027 90.3662 127.759C90.3948 127.787 90.4334 127.803 90.4735 127.803C90.5136 127.803 90.5521 127.787 90.5808 127.759L92.8804 126.157C94.9883 128.717 99.7255 134.098 101.879 136.528C101.711 137.111 97.6022 141.043 95.5403 141.357C88.7258 142.408 83.2834 136.375 79.6501 130.473ZM88.4192 149.145C88.0513 148.019 87.7063 141.281 87.6527 140.085C90.0078 141.619 92.8474 142.228 95.6246 141.794C97.4336 141.488 100.469 138.728 101.695 137.272C100.7 141.303 100.003 145.402 99.6105 149.536C94.1682 149.636 90.1592 149.544 88.4192 149.145ZM148.117 148.065L146.208 148.118C146.338 146.102 142.268 132.941 140.152 129.085C135.998 121.535 130.394 117.204 122.591 115.111C122.591 114.506 122.591 113.877 122.491 112.183C122.628 112.184 122.764 112.155 122.888 112.098C123.012 112.041 123.123 111.958 123.212 111.854C123.47 112.054 123.772 112.188 124.094 112.245C125.282 112.452 127.206 111.279 127.06 110.267C127.675 110.284 128.28 110.109 128.792 109.769C129.674 109.217 130.701 108.036 130.571 107.063C130.44 106.089 130.134 106.657 130.885 106.174C131.62 105.66 132.139 104.893 132.341 104.02C132.433 103.455 132.413 102.878 132.281 102.322C132.15 101.766 131.91 101.241 131.575 100.777C131.456 100.614 131.297 100.486 131.112 100.405C130.928 100.324 130.725 100.294 130.525 100.317C130.448 100.317 130.463 100.371 130.709 99.8957C130.785 99.7677 130.84 99.6278 130.87 99.4818C130.906 98.967 130.827 98.4507 130.64 97.9697C130.454 97.4887 130.163 97.0549 129.789 96.6993C129.562 96.4636 129.271 96.3006 128.951 96.231C128.632 96.1614 128.299 96.1883 127.995 96.3084C127.995 96.3084 127.658 96.454 127.551 96.4847C127.551 96.2087 127.589 95.8255 127.551 95.7182C127.496 95.3059 127.347 94.912 127.114 94.5674C126.881 94.2229 126.571 93.9372 126.209 93.7328C125.337 93.4039 124.375 93.4039 123.503 93.7328C123.277 93.1577 122.853 92.6821 122.308 92.3914C122.806 92.3914 143.157 91.6249 143.663 91.6249C143.731 91.6212 143.797 91.5964 143.85 91.5538C143.904 91.5112 143.943 91.453 143.962 91.3873C144.414 89.7469 143.839 76.3173 143.54 73.757L145.955 73.6957C147.388 85.5999 149.573 143.573 148.117 148.065Z" fill="#F58346"/>
<path d="M114.29 103.989L114.642 103.491C114.691 103.421 114.71 103.334 114.695 103.25C114.68 103.166 114.632 103.091 114.562 103.042C114.492 102.994 114.405 102.975 114.321 102.99C114.237 103.005 114.162 103.053 114.113 103.123L113.753 103.621C113.704 103.692 113.686 103.78 113.701 103.865C113.717 103.95 113.766 104.025 113.837 104.073C113.908 104.122 113.996 104.141 114.081 104.125C114.166 104.109 114.241 104.06 114.29 103.989ZM114.757 107.492C114.895 107.592 115.041 107.377 114.895 107.278C114.428 106.856 114.19 106.641 114.083 106.511C113.975 106.381 114.037 106.411 114.083 106.327C114.228 105.982 114.849 105.231 115.792 103.797C115.814 103.771 115.825 103.737 115.822 103.702C115.82 103.668 115.803 103.636 115.777 103.614C115.75 103.591 115.716 103.58 115.681 103.583C115.647 103.586 115.615 103.602 115.593 103.629C115.063 104.049 114.582 104.527 114.159 105.055C112.925 106.618 113.324 106.818 114.757 107.492ZM117.003 105.591C117.072 105.423 117.21 105.2 117.294 105.016C117.312 104.978 117.322 104.936 117.323 104.893C117.325 104.851 117.318 104.808 117.303 104.768C117.288 104.728 117.265 104.692 117.236 104.661C117.207 104.63 117.172 104.605 117.133 104.587C117.095 104.569 117.053 104.56 117.01 104.558C116.968 104.557 116.925 104.564 116.885 104.579C116.846 104.594 116.809 104.616 116.778 104.645C116.747 104.674 116.722 104.709 116.704 104.748C116.627 104.917 116.497 105.124 116.405 105.346C116.389 105.385 116.381 105.427 116.381 105.47C116.381 105.512 116.39 105.554 116.406 105.593C116.422 105.632 116.446 105.668 116.476 105.698C116.507 105.728 116.542 105.751 116.581 105.767C116.621 105.784 116.663 105.792 116.705 105.792C116.748 105.791 116.79 105.783 116.829 105.767C116.868 105.75 116.904 105.726 116.933 105.696C116.963 105.666 116.987 105.63 117.003 105.591ZM114.428 110.16C114.665 110.198 114.908 110.179 115.137 110.106C115.366 110.033 115.575 109.907 115.746 109.738C115.901 109.56 116.004 109.342 116.045 109.11C116.058 109.095 116.068 109.078 116.073 109.059C116.079 109.04 116.08 109.02 116.076 109.001C116.073 108.981 116.066 108.963 116.054 108.947C116.043 108.931 116.028 108.918 116.011 108.908C115.994 108.899 115.975 108.893 115.955 108.892C115.936 108.891 115.916 108.895 115.898 108.902C115.88 108.91 115.864 108.921 115.851 108.936C115.838 108.951 115.828 108.968 115.823 108.987C115.556 109.199 115.259 109.37 114.941 109.493C114.608 109.579 114.265 109.618 113.922 109.608C113.906 109.598 113.888 109.592 113.869 109.59C113.85 109.587 113.832 109.589 113.814 109.595C113.796 109.601 113.779 109.61 113.766 109.623C113.752 109.636 113.741 109.651 113.734 109.669C113.726 109.686 113.723 109.705 113.724 109.723C113.724 109.742 113.729 109.761 113.737 109.777C113.746 109.794 113.758 109.809 113.772 109.821C113.787 109.832 113.804 109.841 113.822 109.845C113.995 109.999 114.203 110.107 114.428 110.16ZM118.628 130.45C116.949 129.147 115.11 129.645 113.669 131.216C112.496 128.794 110.327 128.05 107.697 130.089C103.734 133.156 110.61 141.741 111.53 142.04C111.609 142.07 111.696 142.07 111.775 142.04C112.105 141.863 119.839 137.709 120.207 133.654C120.254 133.027 120.132 132.4 119.855 131.836C119.577 131.273 119.153 130.794 118.628 130.45Z" fill="#F58346"/>
</svg>
