<svg width="400" height="400" viewBox="0 0 154 154" fill="none" xmlns="http://www.w3.org/2000/svg">
<path d="M36.6105 34.3259C37.0788 33.4321 37.6197 32.5784 38.228 31.7733C38.6879 33.8813 41.9381 35.4144 43.5478 34.9392C43.7471 36.0047 43.7241 37.1238 43.8161 38.1893C43.8193 38.2146 43.8308 38.2382 43.8489 38.2562C43.8669 38.2742 43.8905 38.2858 43.9158 38.289C43.9469 38.2917 43.9779 38.2831 44.0033 38.2648C44.0286 38.2465 44.0465 38.2197 44.0537 38.1893C44.0537 37.9594 44.2147 34.5789 43.7471 34.5329C45.3875 30.9224 49.4886 33.912 49.4273 32.1642C49.5097 32.2558 49.6117 32.3276 49.7257 32.3743C49.8397 32.421 49.9628 32.4415 50.0858 32.4341C50.2088 32.4268 50.3285 32.3918 50.4361 32.3318C50.5437 32.2718 50.6365 32.1883 50.7074 32.0876C51.8496 30.8688 52.0412 28.9754 56.0732 29.8493C55.7206 30.0562 56.4029 30.5622 56.5485 30.7155L58.0816 32.5399C58.1003 32.5541 58.1232 32.5619 58.1468 32.5619C58.1703 32.5619 58.1932 32.5541 58.2119 32.5399C58.238 32.5253 58.2574 32.5011 58.266 32.4725C58.2746 32.4439 58.2717 32.4131 58.2579 32.3865C57.7692 31.5024 57.1575 30.692 56.4412 29.9796C58.2196 29.213 58.5952 25.8249 58.2656 24.1001C59.2698 23.9928 60.6496 24.0388 61.7151 24.0388C61.8607 24.0388 61.8914 23.8088 61.7151 23.8088C61.2168 23.7705 58.0356 23.3949 57.798 23.8855C56.2112 22.889 54.8314 21.3022 52.9304 20.896C52.4781 20.0604 49.3659 16.5036 48.2238 17.3468C47.6642 17.7684 48.4844 18.5273 48.791 18.8339C45.1422 17.5001 45.0349 19.2632 47.074 20.1217C47.8799 20.4364 48.6507 20.8346 49.3736 21.3099C48.649 21.5938 48.0399 22.1114 47.6428 22.7807C47.2457 23.45 47.0833 24.2326 47.1813 25.0047C46.8517 24.0388 44.4447 23.5942 42.8349 24.2381C42.8807 22.9105 43.0267 21.5883 43.2719 20.2827C43.3868 19.0639 41.9994 19.3322 41.3018 21.2486C41.0949 20.3057 40.3513 19.9914 40.037 20.8423C39.5503 22.6862 39.5503 24.6249 40.037 26.4688C39.1036 27.937 38.5188 29.5994 38.3276 31.3287C37.906 31.1677 36.5875 33.9196 36.4649 34.2263C36.4584 34.2378 36.4542 34.2506 36.4525 34.2638C36.4509 34.277 36.4519 34.2904 36.4555 34.3032C36.459 34.316 36.4651 34.328 36.4733 34.3385C36.4815 34.3489 36.4917 34.3577 36.5032 34.3642C36.5148 34.3708 36.5276 34.375 36.5408 34.3766C36.554 34.3782 36.5673 34.3772 36.5802 34.3737C36.593 34.3701 36.605 34.364 36.6154 34.3559C36.6259 34.3477 36.6347 34.3375 36.6412 34.3259H36.6105ZM48.4001 17.6918C48.5074 17.4158 49.1206 17.6918 49.2893 17.7454C50.5014 18.4911 51.5455 19.4804 52.3555 20.6507C50.968 19.7078 49.8949 19.5622 48.8753 18.443C48.7144 18.2897 48.2928 17.9294 48.4001 17.6918ZM47.9861 20.0987C47.4342 19.8458 46.3611 19.5775 46.1848 18.8876C46.0544 18.42 48.3388 19.0179 48.5381 19.0869C49.7275 19.5308 50.8598 20.1149 51.9109 20.827C51.1774 20.8423 50.4507 20.9716 49.7569 21.2102C49.2284 20.7474 48.631 20.3698 47.9861 20.0911V20.0987ZM47.5262 24.3148C47.7025 22.2911 49.3123 21.4632 51.2517 21.2026C54.6705 20.758 56.6635 24.1845 57.8593 24.3761C58.0203 26.0702 57.9666 28.4235 56.5255 29.5886C53.375 28.6534 51.8802 29.6423 50.7457 31.5203C49.6112 33.3984 48.929 30.8994 50.4774 29.2207C51.1179 28.6801 51.6554 28.0283 52.0642 27.2966C52.6008 26.0012 52.1408 23.5712 50.5311 23.2033C49.1973 22.889 48.5841 23.7935 48.1088 24.836C47.8712 25.5029 47.4266 25.4263 47.5262 24.3148ZM47.2579 25.1426C47.4419 25.6869 48.0705 25.6486 48.3311 25.1426C48.6607 24.5217 48.7527 23.8932 49.5269 23.6479C51.6196 22.981 52.4781 26.0088 51.5889 27.4806C50.945 28.5615 49.1283 29.4737 49.2203 31.574C48.2928 30.1329 45.6328 30.5392 44.529 29.9566C42.6433 28.9294 42.8273 25.158 46.1541 25.7176C46.66 25.7865 47.2886 25.8095 47.2503 25.1426H47.2579ZM41.6085 21.5859C42.1067 20.0911 43.1416 19.2402 42.9652 20.5357C42.9193 20.9879 42.4057 24.2534 42.5666 24.4298C41.9698 24.7442 41.4222 25.1445 40.9416 25.6179C41.0214 24.2547 41.2423 22.9035 41.6008 21.5859H41.6085ZM40.129 22.774C40.129 22.5747 40.4356 19.8764 40.8956 21.0799C40.9444 21.4166 41.0161 21.7495 41.1102 22.0764C40.9492 22.6973 40.4816 25.5259 40.6579 25.9092L40.2823 26.2848C40.1392 25.1204 40.0854 23.9467 40.1213 22.774H40.129ZM40.405 26.6068C41.5855 25.2576 42.9806 24.1155 44.8663 24.2304C46.1158 24.3071 46.683 24.7134 46.867 24.997C47.1199 25.4723 46.499 25.4416 46.2154 25.3726C42.5666 24.4987 41.9764 29.0061 44.3987 30.1789C45.3032 30.6158 46.6294 30.6465 47.5952 30.8918C48.5611 31.1371 49.4809 31.9649 49.021 32.3405C48.5611 32.7162 47.8558 32.2562 46.6447 32.2562C45.2496 32.3176 43.5785 33.2144 43.3868 34.5559C42.1757 34.9392 38.7339 33.6284 38.5346 31.6737C38.8642 30.1482 39.3855 27.7949 40.3973 26.6374L40.405 26.6068ZM18.474 108.52C18.8036 107.646 18.5813 106.328 17.5771 105.998C18.0064 103.177 12.7095 103.591 12.8245 104.979C11.3001 105.038 9.80008 105.381 8.40151 105.991C8.42902 105.938 8.4348 105.876 8.41763 105.819C8.40046 105.761 8.36169 105.713 8.30952 105.684H8.19454L3.95552 106.144C3.92435 106.148 3.89584 106.163 3.87587 106.188C3.85591 106.212 3.846 106.243 3.8482 106.274C3.85009 106.29 3.85518 106.306 3.86317 106.32C3.87115 106.334 3.88188 106.347 3.89472 106.357C3.90756 106.367 3.92226 106.374 3.93796 106.378C3.95366 106.383 3.97005 106.384 3.98618 106.382L8.07189 106.113C8.18687 108.888 9.60499 112.192 11.1381 114.492C10.0006 115.637 8.74985 116.665 7.40499 117.558C7.29768 117.635 7.40499 117.826 7.51998 117.78C8.10255 117.504 11.9813 114.952 11.621 114.423C14.166 114.17 15.2161 114.216 17.1018 116.86C18.0984 118.278 19.5931 116.584 17.4621 113.434C17.0022 112.752 17.2782 112.828 17.1938 112.667C17.9141 112.216 18.5285 111.615 18.9952 110.904C19.205 110.51 19.2677 110.053 19.1722 109.617C19.0767 109.18 18.8293 108.791 18.474 108.52ZM18.543 110.874C18.083 111.571 16.6649 112.407 16.7876 112.667C16.435 113.265 17.8837 114.377 18.1597 115.925C18.2133 116.193 18.2363 117.044 17.7841 117.006C16.9409 116.937 16.0057 112.874 11.4064 114.124C9.88262 111.758 8.8696 109.1 8.43217 106.32C12.1423 105.354 11.0921 105.324 15.0782 105.201C15.11 105.194 15.1379 105.175 15.1564 105.148C15.1748 105.121 15.1825 105.088 15.1778 105.055C15.1746 105.03 15.1631 105.007 15.145 104.989C15.127 104.971 15.1035 104.959 15.0782 104.956C14.4379 104.902 13.7943 104.902 13.1541 104.956C14.7409 103.484 18.4203 104.289 16.6956 107.026C16.4656 107.401 17.1862 107.363 17.5158 106.259C19.1715 107.47 17.7458 109.08 17.5541 109.494C17.4391 109.731 17.8837 109.762 18.3667 108.773C18.6277 109.053 18.7871 109.412 18.8191 109.793C18.8511 110.174 18.7538 110.555 18.543 110.874ZM111.257 87.7851C112.37 86.457 113.057 84.8247 113.229 83.1008C113.401 81.3768 113.051 79.6409 112.223 78.1189C110.544 75.0527 107.286 72.6841 108.099 68.7517C108.375 67.4179 108.919 66.1531 109.18 64.8193C109.801 61.5538 109.18 57.9203 106.934 55.3524C104.918 53.1064 101.614 52.3628 101.008 49.5419C100.633 47.7865 101.277 46.0235 100.671 43.7391C100.224 42.0053 99.2973 40.4327 97.9966 39.2022C96.6958 37.9717 95.0742 37.1333 93.3182 36.7834C91.5622 36.4334 89.7431 36.5862 88.0701 37.2241C86.397 37.862 84.938 38.9591 83.8607 40.3893C90.9513 42.551 92.883 50.4925 89.9931 57.1921C88.5673 60.5189 85.4934 63.7691 81.7833 66.498L81.8293 66.0151C85.2635 63.3935 88.4753 59.0395 89.3875 56.9238C92.6453 49.2583 89.3415 40.9029 80.5722 40.0597C75.2523 39.5308 68.7673 41.1175 65.4175 45.5865C64.421 46.9203 62.9339 51.7189 64.9116 52.2632C64.559 54.2562 63.8154 58.8095 63.6621 60.6416C63.3325 64.7886 64.7736 69.1196 69.3729 69.7329C69.3831 70.6317 69.337 71.5303 69.2349 72.4234C57.2691 74.9531 49.6112 83.0555 46.3841 87.7085C44.8191 85.0904 43.0233 82.6174 41.0182 80.3189C41.3478 79.8207 41.3785 77.9426 41.4091 77.2527C42.1757 77.7433 46.5067 79.5064 47.4956 79.4604C47.6468 79.4688 47.7953 79.4171 47.9087 79.3166C48.0221 79.2162 48.0913 79.075 48.1011 78.9238C48.1091 78.8602 48.1091 78.7958 48.1011 78.7322C47.7559 78.0207 47.2266 77.4146 46.568 76.9767C46.6834 76.7364 46.7129 76.4637 46.6515 76.2042C46.5901 75.9447 46.4416 75.7142 46.2307 75.551C45.0589 74.7161 43.8407 73.9483 42.582 73.2513C42.467 73.1823 42.329 73.3663 42.444 73.443L45.6558 75.6966C46.0391 75.9496 46.3457 76.2255 46.1924 76.7161C44.7919 75.5952 43.3167 74.5707 41.7771 73.6499C40.5046 72.8834 40.3206 73.144 40.083 72.0325C39.9374 71.3349 39.9144 69.7942 38.7569 70.3001C38.5116 69.8862 36.1276 69.8555 35.9666 70.7447C33.8526 69.7914 31.6725 68.9921 29.4433 68.3531C29.2823 68.3531 29.1827 68.5754 29.29 68.6827C30.9151 70.3844 33.0078 71.5879 34.9395 72.891C34.7737 72.944 34.6275 73.0452 34.5196 73.1818C34.4117 73.3184 34.347 73.484 34.3339 73.6576C32.9004 72.96 30.3708 74.9301 32.6245 79.6443C32.9401 80.3127 33.3311 80.9427 33.7896 81.5224C31.8349 88.8506 32.2565 97.344 33.4984 104.787C34.6022 111.364 36.5646 119.076 43.0266 122.372C45.8015 123.782 49.7492 124.15 52.0642 121.682L53.4593 124.641C52.5625 126.833 51.5429 133.839 51.4816 136.101C51.4816 136.254 51.6886 136.254 51.7116 136.101C52.139 132.233 52.8539 128.402 53.8503 124.641C65.5708 127.5 82.7645 127.906 96.6161 123.215C98.4043 123.89 100.264 124.358 102.158 124.61C103.047 125.729 105.309 131.31 105.615 132.759C105.626 132.791 105.649 132.818 105.679 132.833C105.709 132.849 105.744 132.853 105.776 132.843C105.803 132.833 105.827 132.816 105.843 132.792C105.86 132.769 105.868 132.741 105.868 132.713C105.249 129.898 104.216 127.191 102.802 124.679C112.767 125.637 119.781 119.03 119.965 109.233C120.111 101.568 115.941 93.6646 111.265 87.8158L111.257 87.7851ZM45.3492 78.2492C45.5332 77.8736 45.7248 77.4827 45.9088 77.1377C46.0621 76.9384 46.5757 77.0687 45.9088 78.1802C45.4719 78.8471 45.2726 78.4332 45.3492 78.2492ZM33.2454 71.3503L31.0607 69.8172L31.329 69.3956L33.7666 70.3001C33.5751 70.6411 33.4012 70.9916 33.2454 71.3503ZM84.4126 71.6339C82.3168 75.5218 79.1159 78.7015 75.214 80.7712C74.1847 79.189 73.2529 77.5456 72.4238 75.8499C74.5778 75.6583 81.2238 73.2437 81.7297 71.4423C82.6265 71.4591 83.5219 71.5205 84.4126 71.6262V71.6339ZM64.5283 64.8883C63.4015 61.3621 64.7276 56.1036 65.1952 52.3168C67.3185 52.6465 71.5499 50.0938 72.6921 47.8479C73.8419 50.3775 76.9234 52.2019 79.6523 52.4471C79.2154 54.3942 79.8593 58.0813 81.952 57.3377C82.5116 57.1384 83.1785 56.5712 83.7687 56.9698C84.0041 57.1937 84.173 57.4782 84.2569 57.792C84.3407 58.1059 84.3363 58.4367 84.244 58.7482C83.6537 61.5921 81.0704 61.1245 81.1241 70.0241L81.1854 71.5112C78.4766 73.5514 75.3253 74.9248 71.9868 75.5203C71.0286 74.5723 70.2058 73.4967 69.5415 72.3238C69.6029 72.0632 70.2084 69.4646 69.6029 69.3496C69.4342 68.997 65.9234 69.2729 64.5283 64.8883ZM66.2224 73.6499C66.5903 73.5349 69.2886 72.8144 69.3729 72.7071C69.9356 73.8672 70.7164 74.9082 71.6725 75.7733C70.2783 76.7291 69.0289 77.8805 67.9624 79.1921C67.0885 77.4501 66.501 75.5788 66.2224 73.6499ZM38.4119 70.5837C38.1175 70.8731 37.9308 71.2545 37.883 71.6646C37.3388 71.4039 36.7868 71.1586 36.2273 70.898C36.5438 70.6834 36.9049 70.5436 37.2834 70.4892C37.6619 70.4347 38.0478 70.4671 38.4119 70.5837ZM37.2698 74.9224C38.0363 77.4444 36.7562 77.705 36.0586 76.5092C35.907 75.527 35.4322 74.6234 34.7095 73.9412C35.1924 72.2625 36.7945 73.443 37.2698 74.8841V74.9224ZM32.5018 78.1266C32.1722 77.0457 31.9039 75.62 32.6398 74.6388C34.1729 72.5998 35.5527 75.3057 35.706 76.8311C35.8057 77.9886 35.1848 77.8353 34.7862 77.337C34.3876 76.8388 34.0196 76.1259 33.46 76.0109C32.9004 75.8959 33.9276 76.8694 33.9583 76.9001C34.1576 77.1301 34.2956 77.3984 34.5025 77.6666C35.2078 78.5099 36.1813 78.2339 36.1276 77.0457C36.5032 77.4827 37.0475 77.8123 37.4997 77.3984C37.4308 78.5865 37.7297 78.0653 37.7297 78.0499C37.7757 76.2025 38.6266 75.39 38.4963 73.7572C38.3296 73.0678 38.2727 72.3564 38.3276 71.6492C38.4273 71.1586 38.8259 70.4841 39.4085 70.6527C39.8071 71.6109 39.4928 72.2471 40.3053 73.7189C41.1179 75.1907 41.0719 75.8039 40.9722 77.5517C40.9186 78.3182 40.7959 79.0848 40.7269 79.8513C39.9604 81.1008 35.4147 81.921 34.1039 81.4457C33.4737 80.3751 32.9377 79.2517 32.5018 78.0883V78.1266ZM34.0809 81.737C35.614 82.3043 39.5158 81.829 40.8189 80.5565C41.9304 82.013 43.0726 83.4311 44.1151 84.9335C40.9109 87.5551 35.752 87.5935 33.1841 87.3712C33.3834 85.4471 33.7283 83.6151 34.0809 81.6987V81.737ZM117.903 116.431C114.53 123.514 107.225 125.484 99.9889 123.821C94.3701 122.533 87.5401 118.761 83.0175 115.09C86.2677 112.146 87.6628 106.995 87.3638 103.591C93.2509 102.702 98.1722 102.258 104.09 101.928C104.118 101.928 104.146 101.917 104.166 101.897C104.186 101.876 104.197 101.849 104.197 101.821C104.197 101.792 104.186 101.765 104.166 101.745C104.146 101.725 104.118 101.713 104.09 101.713C101.192 101.775 98.2948 101.989 95.4126 102.25C95.5659 101.798 93.1896 100.119 91.2962 96.1635C91.2426 96.0409 91.0049 96.0868 91.0509 96.2402C91.9425 98.5173 93.3152 100.575 95.0753 102.273C90.3415 102.651 85.6359 103.324 80.9861 104.289C79.775 102.25 77.3527 100.303 74.961 99.9733C74.4091 97.4436 73.3436 91.9475 72.6614 89.6325C72.5771 89.3489 69.5952 89.9238 69.1813 89.9698C69.2886 90.5524 69.5109 91.6332 68.6753 91.7865C66.8663 92.1238 59.1778 93.3196 57.2537 93.3196C56.4872 93.3196 56.4412 92.2848 56.4105 91.7865C56.0196 91.8402 53.6126 92.0625 53.536 92.3691C53.352 93.1356 58.1889 115.435 58.6335 117.428C58.6948 117.719 60.4732 117.489 60.7722 117.474C66.5807 117.22 72.3714 116.655 78.1192 115.78C78.1667 115.774 78.2101 115.75 78.2401 115.712C78.2702 115.675 78.2845 115.628 78.2802 115.58C78.2835 115.565 78.2835 115.549 78.2802 115.534C78.4335 115.373 77.5136 111.548 77.3987 111.042C77.7283 111.088 78.1039 111.165 78.4565 111.196C83.899 118.094 92.63 121.774 96.0872 123.077C81.2544 127.17 68.5527 127.308 53.6586 124.288C51.4433 118.876 49.2126 112.744 48.8294 106.911C48.2544 98.2178 52.2788 89.2109 57.9436 82.7642C58.0356 82.6569 57.8823 82.4959 57.7827 82.6032C52.2712 88.4597 48.1625 97.6353 48.2851 105.73C48.3618 110.651 50.0942 116.561 51.9186 121.23C49.9485 123.483 46.5067 123.391 43.9464 122.311C37.4001 119.559 35.2231 112.085 34.0809 105.738C32.9291 99.783 32.6118 93.697 33.1381 87.6548C36.7945 88.268 41.3555 87.5015 44.368 85.2862C45.9925 87.6698 47.4474 90.1647 48.722 92.7523C48.8274 93.0257 48.9692 93.2836 49.1436 93.5189C49.1749 93.548 49.2159 93.5642 49.2586 93.5642C49.3013 93.5642 49.3424 93.548 49.3736 93.5189C49.394 93.5007 49.4101 93.4782 49.4207 93.453C49.4313 93.4278 49.4362 93.4006 49.4349 93.3733C49.3353 92.6067 46.936 88.544 46.6064 88.0074C51.38 81.3621 58.1131 76.3766 65.8621 73.7496C65.7241 74.3015 67.2802 80.043 67.9624 79.56C69.2127 78.2711 70.5663 77.0866 72.0098 76.0186C72.809 77.8446 73.8395 79.5604 75.076 81.1238C75.5819 81.7907 83.1095 76.2255 84.8265 71.6569C94.3088 72.983 103.385 79.3224 109.571 86.4053C116.24 94.0785 122.648 106.405 117.903 116.393V116.431ZM73.6349 107.447C72.1018 106.42 69.8941 105.147 69.2886 103.239C69.0356 102.472 70.5917 103.354 70.9137 103.392C71.6891 104.279 72.5844 105.053 73.5736 105.692C73.6962 105.768 73.8112 105.577 73.6962 105.492C72.4928 104.665 70.3081 102.664 70.2238 101.1C70.1778 100.05 71.6189 101.514 72.0481 101.782C72.4774 102.051 75.168 104.143 75.7812 103.446C76.0802 103.116 75.5666 102.411 75.4286 102.089C75.2983 101.445 75.1603 100.809 75.0147 100.173C78.0809 100.939 78.7861 102.196 80.6642 104.458C81.3311 106.543 79.5373 110.253 78.4718 110.858C76.3102 110.398 74.0258 110.176 72.1938 108.819C71.3812 108.221 69.8941 107.133 69.7025 106.06C69.5415 105.224 71.3353 106.313 71.5806 106.489C72.2072 106.911 72.8573 107.298 73.5276 107.646C73.554 107.661 73.585 107.664 73.6138 107.655C73.6425 107.647 73.6667 107.627 73.6809 107.6C73.6951 107.574 73.6983 107.543 73.6897 107.514C73.681 107.485 73.6613 107.461 73.6349 107.447ZM79.7673 109.823C80.7978 108.278 81.2511 106.419 81.0474 104.573L87.0572 103.576C86.9882 108.037 85.7617 111.502 82.6265 114.775C81.2253 113.61 79.9111 112.345 78.6941 110.989C79.1499 110.694 79.5284 110.294 79.798 109.823H79.7673Z" fill="#F58346"/>
<path d="M68.5451 89.4485C68.1005 88.3293 66.7054 88.8122 65.8239 88.9426C65.157 89.0422 64.3598 89.4408 64.0915 88.8582C63.6085 87.7851 63.0106 86.8652 61.6385 87.1182C59.7068 87.4478 60.5577 89.6171 59.8601 89.8011C58.6106 90.1307 56.5946 89.5251 56.8629 91.9474C56.8629 92.1237 56.9472 92.7753 57.2232 92.783C58.9939 92.783 66.6057 91.6025 68.5528 91.2499C69.0587 91.1579 68.6524 89.7168 68.5528 89.4331L68.5451 89.4485ZM61.6462 89.6938C60.7033 88.9809 61.6462 87.7851 62.3131 88.406C63.2866 89.2952 62.3284 90.192 61.6845 89.6938H61.6462ZM70.6991 60.9635C70.9368 60.9175 70.8984 60.5035 70.6531 60.5342C69.3193 60.6799 69.488 60.3042 69.6566 58.7251C69.7503 57.7071 69.9324 56.6991 70.2009 55.7126C70.1997 55.6859 70.1898 55.6603 70.1727 55.6397C70.1556 55.6192 70.1323 55.6047 70.1062 55.5987C70.0802 55.5926 70.0528 55.5952 70.0284 55.6061C70.004 55.617 69.9838 55.6355 69.9709 55.6589C69.512 57.0757 69.2263 58.5428 69.12 60.0283C69.0817 60.9635 69.9479 61.1015 70.6991 60.9635ZM125.615 25.7098L121.859 26.9363C120.893 25.0506 118.838 22.245 116.907 21.1489L119.39 17.8067C119.452 17.7224 119.344 17.5844 119.26 17.6611C118.946 17.9524 116.562 20.505 116.462 21.0799C111.02 23.9544 109.042 28.5921 111.863 29.1133C111.533 30.0025 112.384 30.7767 113.212 30.8457C113.028 32.0645 115.404 33.6513 117.152 30.4854C117.873 30.5698 118.202 31.9726 118.624 32.7238C119.498 34.2569 120.923 34.7781 121.23 33.8276C121.583 32.5935 119.137 29.3586 121.705 27.3886C122.035 27.5496 125.285 26.1544 125.722 25.8555C125.822 25.8248 125.714 25.6792 125.615 25.7098ZM113.005 30.4701H112.944C112.669 30.3946 112.434 30.2141 112.291 29.9676C112.148 29.721 112.107 29.428 112.177 29.1517C113.373 29.1517 114.14 28.3314 114.868 27.4729C115.105 27.2583 115.933 27.082 115.995 27.5726C116.125 28.8987 114.377 30.8381 113.005 30.4701ZM114.722 32.0032C114.409 31.9936 114.11 31.8736 113.877 31.6646C113.644 31.4556 113.493 31.171 113.45 30.8611C114.515 30.7997 115.228 29.9642 115.841 29.1823C116.156 28.8604 117.236 28.5767 117.106 29.4736C116.976 30.3705 115.795 32.1335 114.722 31.9726V32.0032ZM120.341 31.6276C120.441 31.9802 121.33 34.0576 120.494 33.9273C118.654 33.682 118.562 30.3551 117.275 30.2172C117.85 28.9677 117.198 28.1628 116.14 28.6841C116.5 27.8025 116.447 26.6297 115.121 27.0053C116.171 24.652 113.12 25.7022 112.3 26.9057C112.185 27.0743 112.422 27.2659 112.545 27.0973C113.519 25.7405 116.156 25.0889 114.461 27.4882C112.047 30.8764 107.563 27.4882 114.914 22.498L116.677 21.3482C118.624 22.9529 120.248 24.9146 121.46 27.128C120.096 28.1628 119.896 30.0255 120.349 31.5969L120.341 31.6276ZM149.37 105.922C147.711 106.013 146.057 106.198 144.418 106.474C144.204 106.55 144.242 106.964 144.265 107.133C141.605 106.282 142.693 101.767 141.421 101.368C141.218 101.32 141.005 101.334 140.811 101.409C140.617 101.485 140.45 101.617 140.333 101.79C139.528 102.832 139.566 104.327 139.612 105.623C138.209 105.147 135.396 105.692 135.994 107.876C135.281 108.122 135.227 110.03 135.58 110.782C135.319 111.69 135.428 112.665 135.883 113.494C136.338 114.323 137.103 114.938 138.01 115.205L138.24 115.258C139.635 115.619 141.079 115.758 142.517 115.672C142.257 116.439 146.35 117.972 147.002 118.133C147.032 118.142 147.064 118.139 147.092 118.125C147.12 118.111 147.142 118.087 147.153 118.058C147.163 118.028 147.162 117.996 147.15 117.967C147.138 117.938 147.115 117.915 147.086 117.903C145.631 117.26 144.211 116.541 142.831 115.749C144.595 113.503 145.131 109.616 144.687 106.895C146.22 106.673 147.845 106.558 149.393 106.205C149.516 106.129 149.477 105.922 149.37 105.922ZM142.655 115.327C140.402 114.837 135.756 115.833 135.848 111.15C136.216 111.533 136.4 111.272 136.247 111.15C135.649 110.69 135.58 108.75 136.124 108.198C136.4 108.789 136.523 108.421 136.484 108.321C135.457 105.952 138.171 105.577 139.597 106.021C139.512 106.849 138.73 106.589 138.225 106.351C138.197 106.34 138.166 106.339 138.138 106.349C138.109 106.359 138.086 106.378 138.071 106.405C138.057 106.426 138.049 106.451 138.049 106.477C138.049 106.503 138.057 106.529 138.071 106.55C138.753 107.156 139.865 107.079 139.934 106.006C139.988 105.14 139.781 102.296 140.915 101.79C142.05 101.284 141.475 103.952 142.211 105.684C142.51 106.389 143.606 107.746 144.288 107.616C144.648 110.613 144.004 112.621 142.655 115.327ZM136.998 72.1168C137.473 72.0784 138.477 71.9098 138.531 71.2966C140.034 71.3886 141.536 71.4269 143.038 71.4116C143.184 71.9558 147.132 72.0708 147.707 71.9788C147.822 71.9788 147.875 71.7795 147.707 71.7488L143.506 71.2276C143.843 69.0122 143.437 64.1217 142.042 62.6116C142.686 61.9447 145.752 60.5342 146.81 59.967C146.828 59.9471 146.838 59.9211 146.838 59.8941C146.838 59.8671 146.828 59.8411 146.81 59.8213C146.799 59.8018 146.781 59.7866 146.76 59.7783C146.74 59.7699 146.716 59.7689 146.695 59.7753C145.997 59.99 141.712 61.7684 141.528 62.5579C137.289 62.3816 137.006 58.1272 135.519 58.6408C134.407 59.0318 135.013 61.2624 135.411 62.0213C135.565 62.3279 136.262 63.2325 135.526 63.3015C133.687 63.4854 132.268 65.6931 133.664 66.7739C133.158 67.7168 133.349 69.1272 134.031 69.5028C133.296 71.6339 135.35 72.2931 136.998 72.1168ZM134.3 70.3537C134.283 70.0995 134.319 69.8446 134.405 69.6047C134.491 69.3648 134.624 69.1449 134.798 68.9586C134.951 68.8129 134.668 68.4833 134.223 69.2192C133.641 67.8471 133.633 67.1189 134.783 66.0227C135.013 65.8081 134.453 65.6931 133.863 66.5363C132.989 64.8959 134.353 64.091 135.68 63.6081C136.745 63.3398 135.963 62.2743 135.787 61.96C135.312 61.1015 135.02 59.1161 135.787 58.9704C136.553 58.8248 136.783 60.8408 138.976 62.2053C139.846 62.8029 140.899 63.0744 141.95 62.9718C143 64.8346 143.36 68.721 143.192 70.9593H136.216C136.093 70.9593 136.101 71.1203 136.216 71.1356C136.845 71.1969 137.473 71.2429 138.102 71.2889C137.979 71.8791 134.338 72.2548 134.3 70.3537ZM67.7019 53.2443C67.2383 53.3221 66.8159 53.5577 66.5061 53.9112C66.0922 54.4401 66.4371 54.6778 66.5061 54.4555C66.7934 54.0579 67.2207 53.784 67.7019 53.6889C68.1465 53.5356 67.9549 53.2443 67.7019 53.2443ZM73.796 53.7962C74.3416 53.865 74.8405 54.1391 75.1911 54.5628C75.3061 54.7161 75.582 54.6241 75.1911 54.0492C75.0468 53.8305 74.8543 53.6476 74.6284 53.5148C74.4026 53.3819 74.1493 53.3025 73.888 53.2826C73.589 53.3516 73.5277 53.7196 73.796 53.7962ZM20.881 56.1802C20.2501 55.8369 19.5449 55.6527 18.8267 55.6436C18.8267 54.7314 19.4399 53.9879 19.8232 53.183C20.6741 51.3739 19.7159 50.2778 18.9723 50.6457C18.1138 51.075 17.1939 54.2408 13.7521 53.7119C13.7521 53.0987 10.7626 51.19 10.1263 50.891C10.0037 50.8297 9.92704 51.0213 10.042 51.0826C11.2187 51.8464 12.3131 52.7301 13.3075 53.7196C10.479 55.8353 10.6476 60.7948 10.7932 60.9711C9.39046 61.0248 8.003 60.6645 6.60788 60.8025C6.4699 60.8025 6.4699 61.0401 6.60788 61.0401C7.30544 61.0401 10.8009 61.5154 11.1305 61.3238C12.4797 62.6039 16.4427 64.2596 18.4357 63.861C18.7406 63.8131 19.0326 63.7043 19.2945 63.5411C19.5564 63.378 19.7828 63.1638 19.9602 62.9113C20.1376 62.6588 20.2623 62.3732 20.327 62.0715C20.3917 61.7698 20.395 61.4581 20.3368 61.1551C20.5083 61.0942 20.6661 61 20.801 60.8779C20.9359 60.7558 21.0454 60.6082 21.1231 60.4436C21.2007 60.279 21.2451 60.1007 21.2535 59.9189C21.262 59.7371 21.2344 59.5555 21.1723 59.3844C21.1211 59.24 21.046 59.1052 20.95 58.9858C21.1976 58.8413 21.4019 58.6331 21.5416 58.3827C21.6813 58.1324 21.7513 57.8492 21.7443 57.5626C21.7372 57.276 21.6534 56.9966 21.5016 56.7534C21.3497 56.5103 21.1354 56.3123 20.881 56.1802ZM19.9305 62.2666C18.6887 65.0952 12.265 62.144 11.1995 60.7335C11.1075 60.6032 11.0845 56.2262 13.6448 53.9495C16.8567 55.1224 18.7347 50.8833 19.3249 50.8833C19.7465 50.8833 19.8769 51.4889 19.8769 51.8109C19.8769 53.2213 18.5047 54.2255 18.5124 55.6436C17.2093 55.7739 16.7723 56.9008 17.3702 57.4757C15.9368 57.5293 15.5995 58.7098 16.8643 59.4304C14.5647 59.645 16.2894 61.569 18.3284 61.8527C18.4587 61.8527 18.4817 61.6764 18.3284 61.638C14.1737 60.1739 16.7953 59.0471 18.9953 60.1509C19.8385 60.6185 20.3674 61.2164 19.9305 62.2666ZM20.2065 60.7335C19.772 60.1265 19.1271 59.7029 18.3974 59.5454C17.6309 59.3307 17.2629 59.599 16.4964 58.8171C15.8985 58.2192 16.8643 57.3454 18.9033 58.0506C21.1033 58.7788 21.3486 60.2889 20.1835 60.7565L20.2065 60.7335ZM21.2183 58.0429C21.0728 58.2727 20.8825 58.4709 20.6587 58.6255C19.8621 57.9502 18.8717 57.5449 17.8302 57.468C17.7075 57.3224 17.3396 57.2687 17.3779 56.7934C17.4622 55.2527 22.1535 56.0192 21.1953 58.0659L21.2183 58.0429ZM73.3744 57.6137C73.7193 57.6137 74.0106 56.5711 73.5583 56.4178C73.1061 56.2645 72.9911 57.6137 73.3744 57.6137ZM67.081 56.0192C66.7897 56.0192 66.5521 57.1844 66.9124 57.1844C67.2726 57.1844 67.5026 56.0576 67.081 56.0192ZM73.0908 63.3091C76.0113 63.7001 75.7124 60.5419 75.0761 61.0708C74.7772 61.3391 75.6587 62.9642 73.1137 63.1098C72.9988 63.1098 72.9604 63.3091 73.0908 63.3091Z" fill="#F58346"/>
</svg>
