<svg width="496" height="471" viewBox="0 0 496 471" fill="none" xmlns="http://www.w3.org/2000/svg">
<g filter="url(#filter0_i_4_361)">
<path fill-rule="evenodd" clip-rule="evenodd" d="M291.376 81.8323C287.123 71.5151 275.312 66.599 264.995 70.8517L259.657 73.0518C249.34 77.3046 244.424 89.1159 248.677 99.433L265.178 139.464C269.43 149.781 264.514 161.592 254.197 165.845L198.155 188.946C187.837 193.199 176.026 188.282 171.773 177.965L155.273 137.935C151.02 127.618 139.209 122.701 128.891 126.954L123.554 129.154C113.237 133.407 108.321 145.218 112.574 155.535L129.074 195.566C133.327 205.883 128.411 217.694 118.094 221.947L78.0635 238.448C67.7464 242.701 62.8302 254.512 67.083 264.829L69.2831 270.166C73.5358 280.484 85.3471 285.4 95.6643 281.147L135.695 264.646C146.012 260.393 157.823 265.31 162.076 275.627L185.177 331.669C189.429 341.986 184.513 353.798 174.196 358.051L134.166 374.551C123.849 378.804 118.933 390.615 123.185 400.932L125.385 406.27C129.638 416.587 141.449 421.503 151.767 417.25L191.797 400.75C202.114 396.497 213.925 401.413 218.178 411.73L235.229 453.095C239.482 463.412 251.293 468.328 261.61 464.075L266.947 461.875C277.264 457.622 282.181 445.811 277.928 435.494L260.877 394.129C256.624 383.812 261.541 372.001 271.858 367.748L327.9 344.647C338.217 340.394 350.029 345.311 354.281 355.628L371.332 396.992C375.585 407.309 387.396 412.226 397.713 407.973L403.051 405.773C413.368 401.52 418.284 389.709 414.031 379.392L396.98 338.027C392.728 327.71 397.644 315.899 407.961 311.646L449.326 294.595C459.643 290.342 464.559 278.531 460.306 268.214L458.106 262.876C453.854 252.559 442.042 247.643 431.725 251.896L390.36 268.947C380.043 273.2 368.232 268.283 363.979 257.966L340.878 201.924C336.625 191.607 341.541 179.795 351.859 175.543L393.224 158.492C403.541 154.239 408.457 142.428 404.204 132.111L402.004 126.773C397.751 116.456 385.94 111.54 375.623 115.793L334.258 132.843C323.941 137.096 312.129 132.18 307.877 121.863L291.376 81.8323ZM310.299 301.948C320.617 297.695 325.533 285.884 321.28 275.567L298.179 219.524C293.926 209.207 282.115 204.291 271.798 208.544L215.755 231.645C205.438 235.898 200.522 247.709 204.775 258.026L227.876 314.069C232.129 324.386 243.94 329.302 254.257 325.049L310.299 301.948Z" fill="#FF6B3C"/>
</g>
<defs>
<filter id="filter0_i_4_361" x="0" y="0" width="531.392" height="535.392" filterUnits="userSpaceOnUse" color-interpolation-filters="sRGB">
<feFlood flood-opacity="0" result="BackgroundImageFix"/>
<feBlend mode="normal" in="SourceGraphic" in2="BackgroundImageFix" result="shape"/>
<feColorMatrix in="SourceAlpha" type="matrix" values="0 0 0 0 0 0 0 0 0 0 0 0 0 0 0 0 0 0 127 0" result="hardAlpha"/>
<feOffset dy="4"/>
<feGaussianBlur stdDeviation="2"/>
<feComposite in2="hardAlpha" operator="arithmetic" k2="-1" k3="1"/>
<feColorMatrix type="matrix" values="0 0 0 0 0 0 0 0 0 0 0 0 0 0 0 0 0 0 0.25 0"/>
<feBlend mode="normal" in2="shape" result="effect1_innerShadow_4_361"/>
</filter>
</defs>
</svg>
