<svg width="16" height="16" viewBox="0 0 16 16" fill="none" xmlns="http://www.w3.org/2000/svg">
<path d="M14.3539 13.1601L11.2245 10.0313C12.1315 8.94238 12.5838 7.54568 12.4873 6.13177C12.3908 4.71786 11.7528 3.3956 10.7062 2.44005C9.65963 1.48449 8.28492 0.969223 6.86808 1.00142C5.45125 1.03362 4.10137 1.61081 3.09926 2.61293C2.09714 3.61504 1.51995 4.96492 1.48775 6.38176C1.45555 7.79859 1.97082 9.1733 2.92637 10.2199C3.88193 11.2665 5.20419 11.9044 6.6181 12.001C8.03201 12.0975 9.42871 11.6452 10.5176 10.7382L13.6464 13.8676C13.6928 13.914 13.748 13.9509 13.8087 13.976C13.8694 14.0012 13.9344 14.0141 14.0001 14.0141C14.0658 14.0141 14.1309 14.0012 14.1916 13.976C14.2523 13.9509 14.3074 13.914 14.3539 13.8676C14.4003 13.8211 14.4372 13.766 14.4623 13.7053C14.4875 13.6446 14.5004 13.5795 14.5004 13.5138C14.5004 13.4481 14.4875 13.3831 14.4623 13.3224C14.4372 13.2617 14.4003 13.2065 14.3539 13.1601ZM2.50014 6.51381C2.50014 5.6238 2.76406 4.75377 3.25853 4.01375C3.753 3.27373 4.4558 2.69695 5.27807 2.35636C6.10033 2.01576 7.00513 1.92665 7.87805 2.10028C8.75096 2.27391 9.55279 2.7025 10.1821 3.33183C10.8115 3.96117 11.24 4.76299 11.4137 5.63591C11.5873 6.50882 11.4982 7.41362 11.1576 8.23589C10.817 9.05816 10.2402 9.76096 9.50021 10.2554C8.76019 10.7499 7.89016 11.0138 7.00014 11.0138C5.80707 11.0125 4.66325 10.538 3.81962 9.69433C2.976 8.85071 2.50147 7.70688 2.50014 6.51381Z" fill="#323238"/>
</svg>
