<svg width="154" height="155" viewBox="0 0 154 155" fill="none" xmlns="http://www.w3.org/2000/svg">
<path fill-rule="evenodd" clip-rule="evenodd" d="M76.5534 66.1271C76.3215 65.7827 76.0309 65.4817 75.6948 65.2379C75.4924 65.2423 75.293 65.2889 75.1096 65.3747C74.9261 65.4605 74.7626 65.5836 74.6294 65.7362C74.4991 65.9201 74.6984 66.2114 74.8287 66.4107C74.9662 66.6258 75.1254 66.8261 75.3039 67.0086C75.5415 67.1696 75.9171 66.863 76.1854 66.6637C76.4537 66.4644 76.653 66.3264 76.5534 66.1271ZM75.5185 66.4797C75.4036 66.3341 75.1889 66.0581 75.0893 65.8971C75.2498 65.7199 75.4358 65.5675 75.6412 65.4449C75.6412 65.4449 75.9248 65.9508 76.0244 66.1424C75.8175 66.2881 75.6488 66.4031 75.5185 66.4797ZM77.1359 67.4609C77.0439 67.3536 76.3004 67.6448 76.0781 67.9591C75.9478 68.1431 76.1394 68.4344 76.2774 68.6413C76.4094 68.858 76.5691 69.0564 76.7526 69.2316C76.7944 69.2643 76.8453 69.283 76.8983 69.2852C77.1436 69.2852 77.8411 68.741 77.9484 68.6183C77.9839 68.5846 78.0081 68.5407 78.0178 68.4927C78.0274 68.4447 78.0219 68.3948 78.0021 68.35C77.7677 68.0052 77.4745 67.7042 77.1359 67.4609ZM76.9673 68.7026C76.8113 68.5164 76.6655 68.322 76.5304 68.1201C76.6949 67.9471 76.8803 67.7952 77.0823 67.6678C77.0823 67.6678 77.3735 68.1814 77.4732 68.373C77.2356 68.5263 77.0976 68.626 76.9673 68.7026ZM81.3672 73.6238C83.1379 72.3283 80.7003 69.9138 79.3282 71.6921C79.1849 71.9306 79.1093 72.2035 79.1093 72.4816C79.1093 72.7598 79.1849 73.0327 79.3282 73.2712C79.552 73.5881 79.8924 73.8033 80.2747 73.8694C80.657 73.9355 81.0499 73.8472 81.3672 73.6238ZM79.6041 72.2057C79.6961 70.8566 81.9497 71.2629 81.4668 72.6886C81.386 72.9162 81.2228 73.1053 81.0095 73.2185C80.7961 73.3317 80.5481 73.3609 80.3143 73.3003C80.0805 73.2397 79.8779 73.0937 79.7464 72.891C79.615 72.6884 79.5642 72.4439 79.6041 72.2057ZM76.9749 65.8741C77.0182 65.9029 77.0687 65.9188 77.1206 65.9201C77.3735 65.9201 78.0634 65.3836 78.1707 65.2609C78.2079 65.2266 78.2331 65.1814 78.2427 65.1317C78.2524 65.0821 78.246 65.0307 78.2244 64.985C77.9905 64.6444 77.7002 64.3462 77.3659 64.1035C77.1642 64.1123 76.9663 64.1608 76.7834 64.2463C76.6006 64.3318 76.4365 64.4526 76.3004 64.6017C76.1701 64.7857 76.3694 65.0846 76.4997 65.2763C76.6347 65.4931 76.7941 65.6937 76.9749 65.8741ZM77.3122 64.3411C77.3122 64.3411 77.5958 64.847 77.6955 65.0386C77.4195 65.2303 77.2969 65.3069 77.1896 65.3759C77.0669 65.2226 76.86 64.9543 76.7526 64.7933C76.9102 64.6015 77.0994 64.4382 77.3122 64.3104V64.3411ZM79.6195 67.4839C79.6547 67.4499 79.6782 67.4055 79.6864 67.3573C79.6947 67.309 79.6874 67.2594 79.6655 67.2156C79.4336 66.8712 79.143 66.5702 78.8069 66.3264C78.6053 66.3352 78.4074 66.3838 78.2245 66.4693C78.0417 66.5548 77.8775 66.6755 77.7415 66.8246C77.6112 67.0086 77.8181 67.3152 77.9408 67.5069C78.0799 67.7184 78.239 67.9161 78.416 68.0971C78.4601 68.1253 78.5098 68.1437 78.5617 68.1507C78.8223 68.1584 79.5045 67.6065 79.6195 67.4839ZM78.6307 67.5682C78.4778 67.3813 78.3346 67.1869 78.2014 66.9856C78.3636 66.8101 78.5493 66.6579 78.7533 66.5334C78.7533 66.5334 79.0369 67.0393 79.1366 67.2309C78.9526 67.3842 78.7533 67.4992 78.6307 67.6065V67.5682ZM118.046 65.4219C117.961 65.4832 117.524 65.8052 117.11 66.1884C116.697 66.5717 115.378 67.8365 115.271 68.4114C115.263 68.5165 115.279 68.6221 115.318 68.7202C115.356 68.8184 115.416 68.9067 115.493 68.9786C115.692 69.1932 116.482 69.8678 116.482 69.5458C116.463 69.4909 116.431 69.4411 116.39 69.4002C116.153 69.1742 115.949 68.9162 115.784 68.6337C115.646 68.3577 117.133 66.9473 118.199 65.5675C118.314 65.4679 118.161 65.3069 118.046 65.4219ZM115.945 70.7569C115.838 70.9103 115.731 71.2245 115.945 71.2475C115.945 71.2475 116.137 71.0252 116.375 70.9946C116.827 70.9946 116.804 71.6768 116.796 72.1367C116.796 72.267 116.973 72.3207 117.003 72.1904C117.211 71.9023 117.304 71.5469 117.264 71.1939C117.11 70.55 116.26 70.2817 115.945 70.7569ZM116.275 66.2038C116.369 66.2399 116.473 66.2385 116.566 66.2C116.658 66.1615 116.733 66.0887 116.773 65.9968L116.957 65.5752C116.999 65.4827 117.002 65.3775 116.966 65.2827C116.93 65.1878 116.858 65.1111 116.766 65.0693C116.72 65.0475 116.671 65.0349 116.621 65.0324C116.571 65.0298 116.521 65.0373 116.474 65.0545C116.427 65.0716 116.383 65.0981 116.347 65.1322C116.31 65.1663 116.28 65.2075 116.26 65.2533L116.068 65.6978C116.048 65.7446 116.037 65.7949 116.037 65.8458C116.036 65.8966 116.046 65.9471 116.065 65.9942C116.085 66.0413 116.113 66.0841 116.149 66.12C116.185 66.156 116.228 66.1845 116.275 66.2038ZM119.188 67.7751C119.248 67.8117 119.317 67.8303 119.387 67.8288C119.755 67.8288 119.717 67.4992 119.916 67.3306C119.993 67.2645 120.041 67.1704 120.049 67.0691C120.057 66.9677 120.024 66.8674 119.958 66.7902C119.892 66.7129 119.798 66.6651 119.697 66.6572C119.595 66.6492 119.495 66.6819 119.418 66.748C119.134 66.9856 118.812 67.5452 119.188 67.7751ZM64.0282 48.5199C69.141 48.8495 81.3288 48.2209 81.3288 47.6231C81.2598 20.5645 81.4208 21.9673 81.1065 21.906C75.8941 20.9401 73.8782 20.5262 70.3291 21.0014C65.4923 21.6607 63.691 22.9484 55.765 23.1247C51.1659 23.2321 51.2885 23.0174 51.2502 23.2014C51.1199 23.8146 51.0049 49.984 51.4725 50.4669C52.3616 51.3637 59.9273 48.2516 64.0282 48.5199ZM51.4341 23.301C54.3551 23.4216 57.2806 23.3704 60.1956 23.1477C65.6303 22.6648 69.6546 20.7638 74.7597 21.2697C76.0014 21.3924 79.6041 22.0363 80.8459 22.2969V47.3931C79.8571 47.5004 75.5492 47.9373 70.881 48.0906C63.3307 48.3436 64.3272 47.6307 60.2416 48.4126C56.7769 49.0718 52.5763 50.4439 51.8097 50.1603C51.5031 48.4816 51.3575 24.4662 51.4341 23.301Z" fill="#F58346"/>
<path fill-rule="evenodd" clip-rule="evenodd" d="M61.4297 42.4566C62.9628 42.1883 73.1883 36.263 73.8475 34.8986C73.8907 34.8368 73.9139 34.7632 73.9139 34.6878C73.9139 34.6124 73.8907 34.5388 73.8475 34.477C73.081 33.6492 62.0276 28.3448 60.7705 28.3065C60.004 28.3065 60.4026 40.7932 60.9698 42.196C60.9999 42.2891 61.0639 42.3676 61.149 42.4158C61.2342 42.4641 61.3343 42.4786 61.4297 42.4566ZM60.7398 28.5134C61.951 28.5824 72.3758 33.9251 73.3876 34.7376C72.2761 36.1787 63.0778 41.5981 61.3224 42.0044C60.3872 39.2448 60.8165 28.5134 60.7398 28.5134ZM33.643 29.4639C33.6343 29.5898 33.6189 29.7152 33.597 29.8395C33.5871 29.8889 33.5872 29.9398 33.5973 29.9892C33.6074 30.0385 33.6274 30.0854 33.656 30.1268C33.6846 30.1683 33.7213 30.2036 33.7638 30.2306C33.8064 30.2577 33.8539 30.2758 33.9036 30.2841C34.0021 30.3022 34.1037 30.2811 34.1868 30.2252C34.2699 30.1693 34.3278 30.0832 34.3482 29.9852C34.3789 29.8334 34.3994 29.6797 34.4095 29.5252C34.4135 29.4749 34.4076 29.4243 34.3921 29.3762C34.3765 29.3282 34.3517 29.2837 34.3189 29.2453C34.2862 29.2068 34.2462 29.1752 34.2012 29.1522C34.1563 29.1292 34.1072 29.1153 34.0569 29.1113C34.0066 29.1073 33.9559 29.1132 33.9079 29.1288C33.8599 29.1443 33.8154 29.1691 33.7769 29.2019C33.7385 29.2346 33.7069 29.2746 33.6839 29.3196C33.6609 29.3645 33.647 29.4136 33.643 29.4639ZM33.804 33.5802C33.804 33.5802 33.0911 33.0053 33.0374 32.944C32.9467 32.889 32.8619 32.8248 32.7845 32.7523C32.7845 32.599 32.4472 32.5607 32.6465 33.1126C32.7845 33.4959 33.5203 33.9788 33.8653 33.7642C33.8897 33.756 33.9098 33.7385 33.9213 33.7155C33.9328 33.6925 33.9347 33.6659 33.9266 33.6415C33.9185 33.6171 33.901 33.5969 33.878 33.5854C33.855 33.5739 33.8283 33.5721 33.804 33.5802Z" fill="#F58346"/>
<path fill-rule="evenodd" clip-rule="evenodd" d="M41.6303 68.2351C42.2052 67.7829 41.3313 65.0157 40.2352 61.7196C45.3173 63.5363 49.5409 64.3258 54.7993 63.2987C55.7651 63.452 56.7003 63.5823 57.5741 63.6819C57.7274 63.6819 57.9114 63.4826 58.1567 63.0381C58.9331 63.5541 59.8678 63.7769 60.7936 63.6666C61.4988 63.4673 63.8597 62.2485 64.059 61.6276C64.0836 61.5668 64.0958 61.5017 64.0948 61.4361C64.0938 61.3705 64.0797 61.3058 64.0532 61.2458C64.0268 61.1857 63.9886 61.1316 63.9408 61.0866C63.8931 61.0416 63.8368 61.0066 63.7754 60.9838C65.9217 60.475 68.0978 60.1012 70.2909 59.8646C76.8294 59.1441 88.7336 61.298 92.9648 61.0144C98.8671 60.6082 111.047 54.8822 111.553 53.5177C111.967 52.4139 114.121 7.90917 112.373 5.22632C112.306 5.12086 112.209 5.0381 112.094 4.98886C111.979 4.93963 111.852 4.92621 111.73 4.95037C109.254 5.01935 96.8971 9.59554 92.2903 9.81783C86.7483 10.1168 76.0628 7.74054 69.44 8.46874C59.8661 9.53422 55.6271 12.5697 48.8663 12.4164C40.6951 12.1941 34.3023 7.34961 26.4377 6.34545C21.5549 5.72456 14.84 5.79355 10.5705 7.47225C10.1073 7.61516 9.68263 7.86156 9.32869 8.19279C8.7308 9.02831 8.99908 29.1651 9.00675 29.9623C8.7308 29.3797 8.24022 29.5637 7.97193 30.1616C7.44303 31.4493 7.604 34.7148 7.581 35.1363C7.25268 36.1079 6.97382 37.0954 6.74548 38.0951H5.97895C5.94445 38.0954 5.91093 38.1066 5.88333 38.1273C5.85572 38.148 5.8355 38.1771 5.82565 38.2101C4.29259 42.8553 2.24595 52.4293 5.68767 55.9553C6.77668 57.1481 8.24434 57.9279 9.84227 58.1629C9.86427 58.6089 9.94679 59.0499 10.0876 59.4737C10.4248 60.0103 11.6206 59.558 13.6903 58.9295C12.9126 60.9198 12.2371 62.9487 11.6666 65.008C11.4367 65.7746 10.2562 70.3278 10.5091 70.8337C10.7621 71.3396 11.544 71.4009 12.0422 71.5236C10.5824 80.8203 10.2914 90.2632 11.176 99.6322C11.2144 100.038 11.6283 100.399 12.3335 100.629C12.1878 108.156 13.4526 122.03 13.7976 122.421C13.913 122.5 14.0434 122.555 14.1808 122.582C14.1808 123.241 14.1425 124.383 14.1808 125.204C14.1667 125.249 14.1667 125.297 14.1808 125.342C14.1742 125.622 14.2318 125.9 14.3495 126.154C15.024 127.02 20.6657 127.036 20.9493 126.813C21.0552 126.744 21.1422 126.649 21.2024 126.537C21.2625 126.425 21.294 126.3 21.294 126.173C21.294 126.046 21.2625 125.922 21.2024 125.81C21.1422 125.698 21.0552 125.603 20.9493 125.533C20.573 125.301 20.1751 125.106 19.7612 124.951C19.088 124.689 18.3851 124.512 17.6685 124.422C17.6685 123.97 17.6685 123.326 17.7299 122.804C17.8097 122.809 17.8886 122.785 17.9529 122.737C18.0172 122.69 18.063 122.621 18.0825 122.544C18.5117 121.363 21.4475 107.083 22.4824 101.51C25.1116 101.51 27.9324 101.357 30.5999 101.165C31.1365 109.513 33.1141 121.317 33.3901 121.57C33.5189 121.649 33.6623 121.701 33.8117 121.724V123.74C33.7965 123.784 33.7965 123.833 33.8117 123.878C33.805 124.158 33.8627 124.436 33.9803 124.69C34.6472 125.556 40.2889 125.572 40.5801 125.349C40.6861 125.28 40.773 125.184 40.8332 125.073C40.8934 124.961 40.9249 124.836 40.9249 124.709C40.9249 124.582 40.8934 124.457 40.8332 124.346C40.773 124.234 40.6861 124.139 40.5801 124.069C40.2055 123.834 39.8073 123.639 39.392 123.487C38.7182 123.227 38.0156 123.049 37.2994 122.958V121.823C37.3621 121.81 37.4213 121.783 37.4728 121.744C37.5244 121.706 37.5672 121.657 37.5983 121.601C38.5105 119.37 39.8979 106.339 39.8979 100.138C40.9251 99.9542 43.8302 99.4176 44.4128 98.6051C45.2253 97.371 42.5808 80.6376 40.6261 68.948C40.9742 68.7298 41.3095 68.4918 41.6303 68.2351ZM57.5588 63.2987C51.8635 62.5935 43.309 60.7768 38.7711 57.2967C36.6862 50.6663 37.0464 48.6886 38.0813 41.4985C40.7488 43.9438 42.6804 46.7953 44.3975 48.8649C45.5319 50.2063 57.8807 59.3127 59.0689 60.4089C58.6178 61.3986 58.1137 62.3633 57.5588 63.2987ZM22.3444 21.8217C22.5625 22.0886 22.8584 22.2808 23.1909 22.3715C23.5235 22.4622 23.876 22.4469 24.1994 22.3276C24.1227 22.6802 24.1227 22.7722 24.1994 22.9025C23.5974 23.2269 23.074 23.6796 22.6663 24.2286C21.7925 25.662 21.9228 25.4474 21.9841 26.2139C21.7289 26.3835 21.5169 26.6105 21.3651 26.8767C21.2134 27.1429 21.1261 27.441 21.1103 27.747C21.0505 28.2578 21.0686 28.7747 21.1639 29.28C21.2234 29.6061 21.3543 29.915 21.5472 30.1846C21.6916 30.393 21.8781 30.5689 22.0946 30.7009C22.3111 30.8329 22.5529 30.9181 22.8043 30.9511C22.7487 31.2809 22.7487 31.6177 22.8043 31.9476C23.0387 32.9236 23.5752 33.8008 24.3374 34.4541C24.6327 34.6932 24.9932 34.8378 25.3719 34.8693C25.7505 34.9007 26.1299 34.8175 26.4606 34.6304C26.384 35.0444 26.2614 35.6806 26.1464 36.3398C25.5318 36.3386 24.9176 36.3719 24.3067 36.4394C23.7011 35.8339 19.01 36.5314 19.01 38.0951C17.2657 39.0484 15.6951 40.2898 14.3648 41.7668C13.9662 33.6416 13.5063 19.0929 13.445 19.0622C14.2115 18.7173 18.9257 18.38 23.6092 18.8706C23.3296 18.9777 23.0744 19.1399 22.8587 19.3474C22.6429 19.5549 22.471 19.8037 22.3531 20.0788C22.2351 20.354 22.1736 20.65 22.1721 20.9494C22.1706 21.2488 22.2292 21.5454 22.3444 21.8217ZM31.2591 21.2161C30.3393 21.5841 25.8398 22.8412 24.7283 22.8182C24.5826 22.6112 24.5903 22.7032 24.6746 22.3736C28.5916 21.86 30.4389 19.7751 31.2591 21.2161ZM35.5364 28.8815C35.5977 29.372 36.1879 31.2654 36.2416 31.8019C36.0653 31.9322 35.5517 31.9859 35.4137 32.1239C35.2727 32.5133 35.19 32.9214 35.1684 33.335C34.9308 34.7607 33.7427 35.1057 32.3016 35.167C31.7344 35.167 31.9183 35.167 31.6807 37.3516C30.0585 36.7755 28.3574 36.4523 26.637 36.3935C26.7826 35.5809 26.8822 35.0674 26.9436 34.7301C27.0039 34.8426 27.1057 34.9271 27.2274 34.9657C27.349 35.0044 27.4809 34.9941 27.5951 34.937C28.147 34.6534 28.009 34.0709 27.7791 33.5036C27.2962 32.3155 27.6028 31.8479 27.3422 31.7023C26.9919 31.4983 26.6971 31.2113 26.4836 30.8668C26.0544 30.1002 26.4836 29.3337 26.9742 29.3337C27.9017 29.3337 27.9477 30.2995 28.2083 30.8668C28.5916 31.7483 29.5804 30.7441 29.4654 28.8968C29.6034 28.8048 30.1783 28.8508 30.4466 28.6668C30.7149 28.4829 30.8605 27.9693 31.0752 27.7163C31.3856 27.8428 31.7213 27.8948 32.0554 27.8681C32.3895 27.8415 32.7127 27.737 32.9992 27.563C33.1467 27.4571 33.2687 27.3195 33.3562 27.1604C33.4438 27.0012 33.4946 26.8245 33.5051 26.6432C33.6602 26.748 33.8397 26.8114 34.0263 26.8272C34.4189 26.8155 34.7921 26.6536 35.0688 26.3749C35.2824 26.5428 35.4799 26.7301 35.659 26.9345C35.935 28.2836 35.4827 28.4445 35.5364 28.8738V28.8815ZM21.1793 36.8074C22.0935 36.6105 23.0351 36.5742 23.9618 36.7001C24.3902 37.6092 25.1376 38.3293 26.0621 38.7237C24.4523 39.8505 20.9953 39.2449 21.1793 36.8074ZM24.4217 36.6771C27.4378 36.3633 30.4818 36.894 33.2138 38.2101C31.2285 39.6205 28.8752 39.3446 26.6063 38.4478C25.6892 38.1388 24.9138 37.5103 24.4217 36.6771ZM32.1406 37.5126C32.2096 36.8994 32.2633 36.2478 32.3169 35.6269C33.9956 35.5426 35.3371 35.0597 35.6054 33.3963C35.6054 33.2047 35.6973 32.6298 35.7357 32.4152C36.8011 32.0472 36.7858 32.1699 36.4409 30.8821C36.4409 30.9587 35.9196 29.1267 35.8736 28.7435C35.9741 28.5312 36.0364 28.3028 36.0576 28.0689C36.2492 28.1762 36.4792 27.954 36.5865 27.6243C36.8931 26.6355 36.1496 26.3212 36.1573 25.9686C36.2477 25.5254 36.224 25.0664 36.0883 24.6349C36.027 24.2636 35.8847 23.9103 35.6714 23.6003C35.4581 23.2903 35.179 23.0311 34.8542 22.8412C34.7162 22.7722 34.3253 22.6266 34.2946 22.5959C34.0263 22.32 33.9956 21.5688 32.6006 21.3081C32.2326 21.2391 31.834 21.3081 31.6731 21.2391C31.579 20.9772 31.4012 20.7536 31.1671 20.6029C30.7379 20.327 30.6842 20.5109 30.8452 20.3346C35.1608 21.3695 40.8101 22.8259 43.6846 23.5847C43.6463 25.3554 43.3167 39.3293 42.8644 46.527C41.4426 44.6269 39.8548 42.8569 38.1196 41.2379C38.3189 39.8658 34.5475 37.206 33.4131 38.0722C32.9992 37.8575 32.5699 37.7119 32.1406 37.5126ZM37.744 41.0693C37.5447 42.1731 37.4144 42.794 37.1921 44.3117C36.6152 44.3838 36.0296 44.2944 35.5005 44.0535C34.9714 43.8126 34.5194 43.4297 34.1949 42.9473C33.9993 42.1977 34.0732 41.4032 34.4039 40.7027C34.7346 40.0021 35.3009 39.44 36.004 39.1146C36.9621 39.7432 37.8206 40.6094 37.744 41.0693ZM38.3265 57.6417C36.5789 58.2549 33.896 57.4577 34.103 55.3804C34.1228 54.6143 34.4391 53.8858 34.9852 53.3482C35.5314 52.8107 36.2648 52.5059 37.0311 52.4983C37.3678 54.2353 37.8002 55.9524 38.3265 57.6417ZM60.165 57.0591C60.2187 57.3811 60.3873 58.9065 60.395 59.3587C60.395 59.4814 60.395 59.4354 60.2876 59.466C59.9743 59.5443 59.6571 59.6058 59.3372 59.65C59.1992 58.9295 59.1685 58.6458 58.9539 57.5344C59.935 57.1128 60.0194 57.1128 60.188 57.0515L60.165 57.0591ZM63.4304 61.6583C62.5897 62.3264 61.6579 62.871 60.6632 63.2757C59.8381 63.3888 58.9985 63.23 58.2717 62.8234C58.4633 62.4555 58.6933 61.9726 58.9769 61.3824C59.2068 61.4513 59.3755 61.3824 59.6361 61.1831C60.1113 60.8458 60.9852 60.2402 60.6862 60.8074C60.4716 61.2137 60.096 61.505 60.211 61.7809C60.326 62.0569 60.6939 61.9649 60.9775 61.9266C61.7263 61.8036 62.4663 61.632 63.1928 61.413C63.3154 61.3747 63.8443 61.3057 63.4534 61.6506L63.4304 61.6583ZM66.7418 58.0479C66.7418 58.1706 66.7418 58.1246 66.6269 58.1476C66.3073 58.1999 65.9847 58.2307 65.661 58.2396C65.592 57.5344 65.569 57.0438 65.4694 56.1086C65.8772 55.9769 66.2917 55.8668 66.7112 55.779C66.7648 56.1086 66.7878 57.6417 66.7648 58.0403L66.7418 58.0479ZM73.587 57.519C73.587 57.6417 73.587 57.5957 73.4643 57.611C73.1426 57.6302 72.8201 57.6302 72.4985 57.611V55.4724C73.541 55.2654 73.6329 55.2808 73.7633 55.2578C73.8016 55.6027 73.6866 57.1051 73.587 57.519ZM80.8613 58.0249C80.8613 58.1399 80.8613 58.1016 80.7234 58.0939C80.402 58.0788 80.0819 58.043 79.7652 57.9866C79.8112 57.5267 79.9492 56.6145 80.0258 55.8633C81.0606 55.779 81.0836 55.8097 81.3136 55.7943C81.2982 56.1086 81.007 57.6417 80.892 58.0249H80.8613ZM95.8777 58.2396C95.8777 58.3546 95.8777 58.3162 95.755 58.3316C95.4342 58.3655 95.1117 58.3808 94.7892 58.3776C94.7892 57.703 94.7892 57.2508 94.7049 56.2389C95.8547 55.9553 95.7703 56.009 95.962 55.963C96.0003 56.3156 95.9543 57.8103 95.9083 58.2396H95.8777ZM102.546 56.4076C102.546 56.5302 102.546 56.4842 102.432 56.5072C102.115 56.5684 101.795 56.6119 101.473 56.6375C101.42 56.2773 101.328 55.3728 101.205 54.5066C102.232 54.1693 102.317 54.177 102.439 54.131C102.508 54.4606 102.592 55.9783 102.577 56.4076H102.546ZM108.134 53.8933C108.134 53.9777 108.134 53.947 108.042 53.9623C107.759 54.0169 107.472 54.0528 107.184 54.0696C107.1 53.4488 107.092 53.1728 106.962 52.1993C107.322 52.0665 107.691 51.9564 108.065 51.8697C108.127 52.184 108.18 53.5254 108.165 53.8933H108.134ZM111.799 42.3111C106.985 44.6107 105.038 47.0712 98.9438 48.175C96.324 48.6969 93.622 48.642 91.0255 48.0141C90.4506 45.5152 90.5656 23.4851 90.6193 22.6726C97.8553 23.7457 112.481 18.3493 112.557 18.3263C112.473 25.8 112.136 35.1363 111.799 42.3111ZM9.19838 14.256C12.4025 13.8115 17.5306 12.3397 23.2182 12.8686C31.6501 13.6352 37.9279 18.0044 46.7507 18.7173C56.5163 19.4838 60.4486 16.2644 70.7048 15.4978C77.7339 14.9689 87.0089 17.0769 92.7042 17.1152C97.3494 17.1152 108.157 14.4783 112.634 13.5508V18.0964C112.557 18.0964 96.6595 23.6154 90.5273 22.1743C90.5273 22.1743 90.2743 22.1743 90.259 22.3966C90.2053 23.2781 89.9754 46.8796 90.7112 48.267C90.7312 48.3072 90.7592 48.3429 90.7935 48.3719C90.8278 48.4009 90.8676 48.4226 90.9105 48.4356C93.5928 49.0986 96.3887 49.1588 99.0971 48.612C105.16 47.5081 107.23 45.0476 111.844 42.7863C111.73 45.0859 111.622 47.1785 111.523 48.8649C106.157 51.0112 99.8713 53.6021 93.969 54.0773C89.4695 54.4452 76.7451 52.6516 69.693 53.1728C62.0277 53.7477 58.3713 55.3038 53.9561 55.963C44.3668 48.7729 44.9877 49.2098 43.3167 47.0636C43.7689 40.1648 44.0832 26.2829 44.1445 23.3931C44.146 23.3424 44.1301 23.2926 44.0994 23.2522C44.0687 23.2118 44.0251 23.183 43.9759 23.1708C40.6261 22.297 35.6897 21.0782 31.0675 19.982C31.1546 19.8148 31.1842 19.6235 31.1518 19.4378C31.1138 19.2005 31.0095 18.9788 30.8507 18.7984C30.692 18.618 30.4855 18.4862 30.255 18.4183C30.3374 18.2932 30.3813 18.1466 30.3813 17.9967C30.3813 17.8469 30.3374 17.7003 30.255 17.5751C30.0864 17.3128 29.8344 17.1149 29.5395 17.0134C29.2447 16.9119 28.9243 16.9127 28.6299 17.0156C27.3881 15.3675 24.4907 16.3947 23.9004 17.8817C23.3102 19.3688 25.5025 18.38 18.688 18.4566C17.7069 18.4566 13.9432 18.5946 13.3223 19.0009C13.2227 19.0622 13.9202 40.2644 14.0122 42.2651C13.3217 43.0556 12.7011 43.9046 12.1572 44.8023C11.9328 42.553 11.4545 40.3364 10.7314 38.1948C10.7314 38.1411 10.7314 38.1105 10.4478 38.0951C10.267 37.2087 10.1339 36.3131 10.0492 35.4123C11.7969 33.5879 11.2144 32.7831 10.4555 33.0207C10.1226 33.1892 9.77653 33.3302 9.42067 33.4423C9.19838 28.7128 9.14472 18.6943 9.19838 14.256ZM7.91827 35.2896C7.97193 35.213 8.1559 29.1191 8.60049 30.1769C8.93776 30.9894 8.89943 33.45 8.97609 33.5956C9.34402 34.3621 10.3252 33.4193 10.7238 33.404C10.9231 33.6569 9.95725 34.8604 9.71962 35.1363C9.482 35.4123 9.71962 35.8032 10.1949 38.0875H6.99844C7.31272 37.0603 7.77263 35.5809 7.91827 35.2896ZM10.3175 57.795C8.66128 57.676 7.11633 56.9173 6.00961 55.6794C2.69054 52.3143 4.72184 42.909 6.13226 38.4248H10.4785C11.2059 40.6357 11.6816 42.9216 11.8966 45.2392C11.9003 45.2705 11.914 45.2998 11.9358 45.3227C11.9576 45.3455 11.9861 45.3607 12.0173 45.3659C12.0484 45.371 12.0804 45.366 12.1084 45.3514C12.1364 45.3369 12.1589 45.3137 12.1725 45.2852C13.813 42.4094 16.1955 40.0269 19.0713 38.3864C19.3253 43.1947 18.4976 47.9986 16.6491 52.4446C15.4456 55.2424 14.7481 58.0019 10.3175 57.795ZM17.8295 50.03C18.4572 50.0765 19.0547 50.318 19.5385 50.7207C20.0222 51.1234 20.3681 51.6671 20.5277 52.276C21.3556 55.1505 17.9598 56.1086 15.9975 55.0048C16.7001 53.3819 17.3117 51.721 17.8295 50.03ZM13.2303 61.3747C16.2965 62.4095 16.0282 67.369 11.6973 66.5794C12.1189 65.0924 12.5405 63.5363 13.261 61.3747H13.2303ZM10.9614 70.6727C11.0783 69.4496 11.3014 68.2391 11.6283 67.0547C16.4344 68.0282 17.0936 62.2485 13.33 61.1984C13.9865 59.1873 14.7963 57.2294 15.7522 55.3421C16.6732 55.8482 17.748 55.9982 18.7723 55.7637C22.6663 54.8745 21.1869 49.8384 17.8908 49.8077C19.0648 46.0452 19.5147 42.0943 19.2169 38.1641C19.1786 37.5356 19.9835 37.0987 20.9723 36.8304C20.9464 37.0494 20.9464 37.2706 20.9723 37.4896C21.1333 39.5746 24.8049 40.5557 26.6829 38.831C28.1298 39.3636 29.6801 39.5551 31.2131 39.3906C32.1259 39.2331 32.9834 38.8453 33.7044 38.2638C34.057 37.9955 34.9538 38.3558 35.82 38.9077C35.0723 39.1828 34.4562 39.7305 34.0953 40.4407C33.8647 40.8438 33.7198 41.2901 33.6696 41.7518C33.6195 42.2134 33.6653 42.6804 33.804 43.1236C34.1615 43.689 34.6712 44.1421 35.2746 44.4309C35.8779 44.7197 36.5505 44.8325 37.2151 44.7563C36.8349 47.1469 36.7679 49.5768 37.0158 51.9847C36.4541 51.9691 35.899 52.1081 35.411 52.3866C34.923 52.6651 34.5209 53.0723 34.2486 53.5637C32.2939 56.8522 35.636 58.9984 38.5105 57.7643C39.4303 60.5698 41.638 67.047 41.3543 67.8289C40.409 68.6483 39.3164 69.2804 38.1349 69.6915C38.0497 69.161 37.8357 68.6594 37.5118 68.2307C37.1879 67.8019 36.7638 67.4591 36.2767 67.2322C35.7896 67.0053 35.2543 66.9012 34.7177 66.9291C34.1811 66.9569 33.6594 67.1158 33.1985 67.392C31.719 68.3578 31.3894 70.5424 31.8494 71.3856C29.1411 71.8267 26.4059 72.0828 23.6628 72.1521C24.23 67.5529 17.0017 66.909 17.1856 72.1521C15.0516 71.9541 12.9563 71.4561 10.9614 70.6727ZM37.652 69.9062C35.8278 70.5631 33.947 71.0506 32.0333 71.3626V71.3166C31.9246 70.8749 31.9101 70.4153 31.9906 69.9676C32.0712 69.5199 32.2451 69.0942 32.5009 68.718C32.8128 68.23 33.268 67.8504 33.8042 67.6313C34.3404 67.4123 34.9312 67.3646 35.4956 67.4948C36.06 67.625 36.5703 67.9267 36.9564 68.3584C37.3424 68.7901 37.5854 69.3308 37.652 69.9062ZM23.1569 72.1598C21.3939 72.1598 19.4699 72.1598 17.3696 72.1138C17.3429 71.321 17.6148 70.5471 18.1315 69.9452C18.6482 69.3433 19.3721 68.9574 20.1598 68.8637C20.5823 68.8529 21.0023 68.9333 21.391 69.0993C21.7797 69.2654 22.1281 69.5132 22.4125 69.826C22.6969 70.1387 22.9106 70.509 23.039 70.9118C23.1675 71.3145 23.2077 71.7401 23.1569 72.1598ZM19.0176 125.15C18.9872 125.217 18.9396 125.276 18.8797 125.319C17.4379 125.336 15.9965 125.261 14.5641 125.096C14.5028 124.33 14.4491 123.272 14.4108 122.613C15.4117 122.773 16.4255 122.837 17.4386 122.804C17.2086 124.782 17.2623 124.667 17.5152 124.744C18.4581 125.096 18.3278 124.897 19.0176 125.15ZM17.6302 122.337C16.4797 122.381 15.3278 122.296 14.1962 122.084C13.7362 119.018 12.6018 106.684 12.6094 100.713C14.5028 101.326 18.1208 101.549 22.2064 101.48C20.98 107.137 17.9598 121.348 17.6302 122.337ZM38.6332 123.686C38.6006 123.752 38.5534 123.81 38.4952 123.855C37.0537 123.876 35.6124 123.807 34.1796 123.648C34.1336 123.103 34.0953 122.383 34.0646 121.777C35.0351 121.934 36.0211 121.97 37.0004 121.885C36.8471 123.264 36.8778 123.211 37.1308 123.295C38.0353 123.563 37.9279 123.433 38.6178 123.686H38.6332ZM37.1538 121.386C36.011 121.535 34.8511 121.48 33.7274 121.225C33.2138 119.133 31.4278 108.125 30.8452 101.165C34.2793 100.92 37.4527 100.56 39.645 100.192C39.4917 106.278 37.9126 119.332 37.1384 121.363L37.1538 121.386ZM44.0525 98.2985C42.3585 100.736 12.0039 102.392 11.7203 99.6169C10.8383 90.3052 11.1164 80.92 12.5481 71.6769C19.1709 73.6238 33.9343 72.8727 40.2352 69.2316C42.1592 80.9595 44.6964 97.279 44.0065 98.2678L44.0525 98.2985Z" fill="#F58346"/>
<path fill-rule="evenodd" clip-rule="evenodd" d="M28.9137 62.1565C28.9799 61.6605 28.9344 61.1561 28.7806 60.6799C28.6267 60.2038 28.3684 59.7681 28.0245 59.4047C27.69 59.0264 27.2687 58.735 26.7967 58.5555C26.3248 58.376 25.8163 58.3137 25.3149 58.374C24.8136 58.4343 24.3344 58.6154 23.9185 58.9017C23.5026 59.1881 23.1624 59.5711 22.9271 60.0179C22.6683 60.4391 22.5035 60.9113 22.4439 61.4021C22.3844 61.8929 22.4315 62.3908 22.5822 62.8617C23.8086 65.1996 28.4998 65.0003 28.9137 62.1565ZM23.2567 60.2018C23.4626 59.8075 23.7615 59.4694 24.1275 59.2166C24.4935 58.9639 24.9157 58.8041 25.3573 58.7513C25.799 58.6984 26.2469 58.7541 26.6622 58.9133C27.0776 59.0726 27.4478 59.3307 27.7409 59.6653C28.0422 59.9888 28.2675 60.3756 28.4001 60.7973C28.5327 61.219 28.5694 61.6651 28.5074 62.1028C28.1548 64.5481 23.9696 64.7244 22.9041 62.6777C22.7889 62.263 22.7608 61.829 22.8215 61.4029C22.8821 60.9768 23.0303 60.5679 23.2567 60.2018ZM31.4892 48.1597C31.5602 47.6588 31.5171 47.1484 31.3631 46.6666C31.2092 46.1848 30.9483 45.744 30.6001 45.3771C30.2661 44.9986 29.8453 44.7067 29.3737 44.5266C28.9021 44.3465 28.3938 44.2835 27.8925 44.3431C27.3913 44.4026 26.9119 44.5829 26.4956 44.8685C26.0794 45.1541 25.7386 45.5364 25.5026 45.9827C22.7891 50.8808 30.9373 52.0076 31.4892 48.1597ZM25.8322 46.205C26.0381 45.8107 26.337 45.4725 26.7031 45.2198C27.0691 44.967 27.4912 44.8073 27.9329 44.7544C28.3745 44.7016 28.8224 44.7572 29.2378 44.9165C29.6531 45.0757 30.0234 45.3338 30.3165 45.6684C30.6192 45.991 30.8453 46.3777 30.978 46.7997C31.1107 47.2217 31.1466 47.6682 31.083 48.106C30.7304 50.5512 26.5451 50.7199 25.4796 48.6809C25.3645 48.2662 25.3363 47.8322 25.397 47.4061C25.4577 46.98 25.6059 46.571 25.8322 46.205ZM129.36 81.7414C127.864 80.6902 126.273 79.7818 124.607 79.0278C124.722 78.108 125.152 72.7729 124.837 72.29C124.738 72.1444 124.715 72.29 124.837 71.9988C125.082 72.1724 125.365 72.2858 125.662 72.3297C125.959 72.3737 126.262 72.347 126.547 72.2517C126.813 72.6079 127.207 72.8469 127.646 72.9184C128.085 72.9899 128.534 72.8883 128.9 72.635C130.057 72.0217 132.066 69.6302 131.46 67.9361C131.23 67.2999 131.062 67.7062 131.698 67.2693C132.208 66.8264 132.602 66.266 132.848 65.6365C133.16 65.0447 133.288 64.3731 133.215 63.7079C133.143 63.0428 132.873 62.4145 132.441 61.9035C131.806 61.128 130.929 60.5881 129.95 60.3705C129.645 60.2868 129.335 60.2203 129.023 60.1712C128.854 59.1594 129.613 57.3274 126.83 55.8173C125.953 55.4003 124.951 55.3318 124.025 55.6257C122.967 55.9246 123.258 56.3922 123.067 55.8326C122.231 53.648 119.456 52.092 117.578 53.2341C117.04 53.5523 116.582 53.9903 116.241 54.5141C115.899 55.0379 115.683 55.6333 115.608 56.2542C115.634 56.8925 115.79 57.5187 116.068 58.0939C112.849 58.5001 113.332 63.2296 116.13 63.1147C115.55 64.4374 115.084 65.8067 114.734 67.2079C114.405 68.925 114.16 70.8566 114.957 72.4203C115.303 73.0451 115.787 73.5834 116.371 73.9949C116.955 74.4064 117.625 74.6805 118.329 74.7966C117.946 75.5248 117.563 76.253 117.31 76.8126C111.078 75.5631 97.5029 79.1888 96.2228 80.3003C95.9928 80.4996 96.0924 80.6759 96.2228 81.0668C95.3293 81.3193 94.4236 81.5265 93.5092 81.6877C90.5772 78.1761 87.3373 74.9335 83.828 71.9988C83.9199 70.2741 82.6552 68.2887 81.2447 67.9131C79.7117 65.4679 77.964 63.0303 77.5271 62.7697C77.0901 62.5091 73.4951 64.8394 73.2652 65.3069C73.1885 65.4526 73.2652 65.5752 73.3878 65.8282C74.1083 67.2156 77.4121 72.635 78.8915 74.7429C80.1056 77.7074 81.5913 80.5531 83.3297 83.2438C82.8305 83.3035 82.3362 83.3983 81.8503 83.5274C76.1167 85.0068 71.0729 88.6785 67.0256 92.6797C62.3574 97.2789 58.0802 103.495 56.6008 106.531C56.5241 106.677 56.4628 106.792 56.5318 106.922C56.7072 107.255 56.9017 107.577 57.1144 107.888L56.6621 108.547C55.336 107.527 51.1124 104.484 49.7633 105.534C48.5522 106.033 47.7857 106.148 49.4414 109.076C50.4992 110.931 53.3967 114.097 55.244 115.009C56.4398 115.591 57.1067 114.457 56.8844 114.005C58.0157 113.391 59.0685 112.642 60.0195 111.774L60.786 112.732C60.8317 112.783 60.8947 112.815 60.9626 112.822C61.0306 112.829 61.0988 112.811 61.154 112.771C70.1914 105.872 81.1451 97.1716 82.1109 97.6085C83.8969 98.4211 90.4048 108.815 92.5051 110.379C92.5285 110.395 92.5444 110.42 92.5495 110.448C92.5545 110.476 92.5482 110.505 92.5319 110.528C92.5156 110.552 92.4908 110.568 92.4627 110.573C92.4347 110.578 92.4058 110.572 92.3824 110.555C89.9602 108.892 83.3757 98.858 81.927 98.1068C80.6545 98.4824 76.6609 101.625 69.4555 106.753C65.8222 117.485 64.5344 130.937 64.8563 131.796C64.9253 131.957 65.2626 132.148 65.7532 132.348C65.6612 133.183 65.5692 134.042 65.5002 134.785C64.0821 135.69 59.7129 138.687 60.2648 140.289C60.3185 141.561 60.1422 142.359 63.4919 141.822C65.5845 141.462 67.8228 140.289 69.6241 139.285C69.9231 139.124 70.0304 137.974 70.0457 137.361C70.4678 136.188 70.7258 134.963 70.8123 133.72C71.3122 133.854 71.8354 133.877 72.3453 133.789C72.6979 133.612 73.978 131.397 75.5954 128.369C74.0624 134.356 72.2533 142.42 72.8589 143.163C73.044 143.418 73.3107 143.602 73.6147 143.684C73.9186 143.767 74.2416 143.742 74.5299 143.616C75.4114 143.24 79.6504 128.392 80.7465 123.947C83.9506 124.713 89.5309 126.047 95.7322 127.465C92.9267 137.322 90.5581 147.241 91.064 147.893C91.242 148.148 91.5032 148.332 91.8027 148.415C92.1022 148.497 92.4211 148.473 92.7044 148.345C93.1336 148.161 96.537 138.097 99.9021 128.415C109.1 130.485 118.728 132.532 123.557 133.199C124.324 139.476 125.727 149.434 126.623 149.97C126.886 150.145 127.202 150.223 127.516 150.193C127.83 150.162 128.124 150.024 128.348 149.802C128.877 149.273 128.041 139.07 127.375 132.708C130.042 130.071 135.331 121.394 139.861 113.368C140.866 123.011 143.579 146.329 144.599 148.131C144.726 148.279 144.887 148.394 145.069 148.466C145.25 148.539 145.447 148.565 145.641 148.544C145.961 148.525 146.262 148.386 146.484 148.154C147.182 147.464 144.185 116.266 143.28 109.766C144.974 109.704 146.346 109.635 147.251 109.543C148.408 109.428 148.646 106.378 147.588 106.056C146.475 105.764 145.339 105.572 144.192 105.481C146.093 101.901 147.442 99.1723 147.741 98.2984C147.803 98.1145 147.856 97.9152 147.741 97.7848C147.351 97.5257 146.931 97.3122 146.492 97.1486C148.247 93.4156 149.389 90.8631 149.435 90.7021C150.24 87.659 132.388 82.6152 129.36 81.7414ZM54.1402 107.359C53.6785 108.396 53.1053 109.381 52.4309 110.295L51.6643 109.375C52.371 108.643 52.8295 107.707 52.9751 106.7C53.366 106.914 53.757 107.137 54.1402 107.359ZM52.5612 106.508C52.4065 107.423 51.9882 108.273 51.3577 108.953C49.2421 106.14 49.4951 105.013 52.5612 106.508ZM55.428 114.756C53.8106 113.882 50.1313 109.973 49.2038 107.336C49.1424 107.167 48.9738 106.623 49.0965 106.5C49.2066 106.413 49.3277 106.341 49.4567 106.286C49.4107 107.267 50.5222 108.762 51.1278 109.52C52.2546 110.923 54.5158 113.652 56.3248 114.12C56.4512 114.146 56.5817 114.146 56.7081 114.12C56.8691 114.365 56.3402 115.254 55.428 114.756ZM56.4475 113.675C55.4587 113.407 54.0252 112.088 52.7681 110.686C53.473 109.708 54.0093 108.62 54.3549 107.466C55.3667 108.072 56.2482 108.677 56.6008 108.946C56.6202 108.96 56.6423 108.97 56.6657 108.976C56.6892 108.981 56.7135 108.982 56.7372 108.977C56.7609 108.973 56.7835 108.964 56.8035 108.95C56.8236 108.937 56.8407 108.92 56.8537 108.9C56.8537 108.9 57.0454 108.578 57.2983 108.179C58.0649 109.237 59.0537 110.555 59.8739 111.567C58.5861 112.525 56.8997 113.805 56.4475 113.675ZM63.4996 136.855C64.3138 137.638 65.0411 138.507 65.6688 139.446L64.542 139.829C64.0957 138.933 63.3801 138.198 62.4954 137.729C62.8557 137.399 63.2006 137.1 63.4996 136.855ZM62.1658 138.035C62.9596 138.503 63.6074 139.182 64.0361 139.998C60.809 141.017 59.6362 140.488 62.1658 138.035ZM69.5552 139.001C67.1099 140.151 64.3274 141.5 61.7825 141.477C61.6139 141.477 61.016 141.477 60.9623 141.293C60.9186 141.162 60.8928 141.025 60.8857 140.887C61.9972 141.339 64.3887 140.45 65.5385 140.044C66.8646 139.591 68.9036 138.802 69.8771 137.744C69.8334 138.177 69.7249 138.601 69.5552 139.001ZM69.7315 137.177C69.1029 138.051 67.4319 138.802 66.1594 139.269C65.4767 138.289 64.6467 137.421 63.6989 136.694C65.8145 135.008 65.9141 135.161 65.9295 134.946C65.9295 134.946 65.9985 133.735 66.0904 132.486C67.5608 132.975 69.0612 133.37 70.5823 133.666C70.4664 134.868 70.1879 136.049 69.7545 137.177H69.7315ZM141.785 86.0646C140.467 85.8806 139.332 86.0646 138.758 86.6855C138.489 86.9921 137.684 88.2185 136.535 90.0659C134.961 87.0537 132.77 84.4077 130.103 82.3009C134.549 83.558 138.742 84.9071 141.808 86.0646H141.785ZM117.318 77.2112C117.479 77.2112 117.318 77.2112 118.598 74.7813C118.736 74.4976 117.831 74.6893 116.589 73.8384C114.405 72.382 114.581 69.8601 115.118 67.2923C115.507 65.8309 116.02 64.4051 116.651 63.0303C117.321 62.7541 117.927 62.3417 118.429 61.8192C122.223 63.7662 123.68 63.3523 124.354 63.6282C124.203 63.9994 124.004 64.3497 123.764 64.6707C123.764 64.6707 124.163 67.2233 123.588 68.4037C123.35 68.8866 124.232 69.1319 124.638 68.879C124.838 68.7253 125.02 68.5505 125.182 68.3577C126.608 68.1278 126.715 68.8406 126.018 69.7375C125.152 70.8183 124.554 70.8643 124.485 71.3932C124.446 71.7918 123.649 72.543 124.339 72.6426C124.381 74.8193 124.274 76.9963 124.017 79.1581C124.009 79.2146 124.02 79.2721 124.047 79.322C124.075 79.3718 124.118 79.4112 124.17 79.4341C124.63 79.6257 125.121 79.848 125.596 80.0856C123.488 82.9448 120.759 85.6583 117.164 84.8075C113.569 83.9566 114.045 80.285 115.739 77.0042C116.269 77.0397 116.796 77.1088 117.318 77.2112ZM115.401 77.0808C114.727 78.3993 113.815 80.6989 114.213 82.5462C114.673 84.6542 116.727 85.4744 118.812 85.39C121.495 85.2827 123.151 83.8033 124.799 81.9637C125.29 81.4041 125.78 80.8215 126.163 80.2926C134.649 84.6465 138.949 94.9717 138.819 96.9187C137.286 97.8078 128.248 97.9228 126.447 97.9458C125.943 96.0833 125.554 94.1915 125.282 92.2812C125.282 92.2527 125.271 92.2254 125.251 92.2053C125.23 92.1851 125.203 92.1738 125.175 92.1738C125.146 92.1738 125.119 92.1851 125.099 92.2053C125.079 92.2254 125.067 92.2527 125.067 92.2812C125.272 94.2786 125.608 96.2604 126.071 98.2141C126.133 98.4594 126.432 98.3904 127.421 98.3904L127.559 98.72C122.078 99.3562 118.92 99.4865 114.397 101.725C111.783 99.1339 109.3 96.5584 105.429 93.293C103.95 91.9355 102.366 90.6974 100.692 89.5906C102.111 87.3537 103.728 85.2477 105.521 83.2974C105.628 83.2054 105.482 83.0445 105.375 83.1364C103.31 84.8596 101.598 86.9652 100.331 89.3377C99.6108 87.728 97.1886 82.2243 96.6903 80.6529C98.0011 79.825 108.848 76.6823 115.401 77.0808ZM121.595 117.155C122.691 115.001 123.994 112.556 125.428 110.034C129.506 110.034 133.698 109.957 137.37 109.896C135.438 113.299 133.399 116.91 131.575 120.099C128.241 119.041 124.86 118.052 121.595 117.155ZM131.284 120.558C128.517 125.388 126.294 129.174 125.819 129.68C124.546 129.68 112.688 126.982 101.328 124.391C102.861 120.022 104.271 116.044 105.268 113.491C113.6 115.469 123.611 118.098 131.284 120.558ZM121.779 110.072L125.021 110.034C124.584 110.847 124.155 111.651 123.741 112.456C123.166 111.743 122.507 110.939 121.779 110.072ZM106.763 110.072C106.057 110.195 105.996 109.474 100.814 124.307L97.2806 123.494C101.642 108.516 103.206 107.259 103.413 107.259C104.072 106.332 126.807 105.052 139.785 105.642L137.646 109.413C126.248 109.566 109.614 109.513 106.763 110.042V110.072ZM136.918 105.121C126.186 104.914 111.139 105.688 105.49 106.546C103.252 106.362 105.544 104.852 107.667 104.523C109.277 104.277 111.017 104.346 111.369 104.17C113.209 103.25 113.953 100.851 127.88 99.1339C128.21 99.088 127.995 98.72 127.88 98.4211C131.065 98.4568 134.248 98.2775 137.408 97.8845C137.715 99.7106 137.867 101.559 137.861 103.411C137.74 104.059 137.408 104.649 136.918 105.09V105.121ZM81.3444 68.3271C81.6708 68.4217 81.9747 68.5811 82.2381 68.7958C82.5015 69.0104 82.7189 69.276 82.8775 69.5765C83.154 70.1647 83.3203 70.7986 83.368 71.4469C82.8851 70.6267 82.5325 69.9598 82.4329 69.8678C82.1646 69.5995 80.2023 69.7758 79.6887 69.1013C79.1751 68.4267 80.5549 68.0971 81.3444 68.2964V68.3271ZM73.6331 65.4756C74.4839 64.4868 77.4657 62.7697 77.4657 62.9614C77.8413 63.2143 79.3284 65.4986 80.7388 67.8365C79.635 67.8365 78.7075 68.5034 79.3131 69.3696C79.9186 70.2357 81.3444 70.1361 82.1033 70.2664C82.654 71.1304 83.1383 72.0349 83.552 72.9722C82.7855 73.4092 80.3786 74.8502 79.819 75.1262C78.8915 74.0377 73.8784 66.0275 73.6331 65.4756ZM83.8356 83.2208C82.2073 80.8231 80.7939 78.2862 79.612 75.6398C79.7653 75.7011 79.911 75.6398 80.1103 75.5171C80.8768 75.1185 83.2531 73.7158 83.9429 73.3095C84.2419 73.1256 84.0043 72.6656 83.8433 72.3054C88.3045 75.9081 93.2333 82.0863 93.3789 82.1323C94.4188 82.0389 95.4463 81.8385 96.445 81.5344C97.1503 83.4124 98.7446 87.0687 99.5112 88.7858C94.1301 85.1754 88.6801 82.8145 83.8356 83.2208ZM85.2384 109.421C92.1371 110.916 97.0736 111.966 100.569 112.418C99.4882 115.323 98.2234 119.225 96.9816 123.387C88.8717 121.532 81.812 119.915 80.1869 119.608C82.7318 114.526 85.0007 109.919 85.2384 109.421ZM74.3076 143.148C74.1304 143.214 73.9368 143.22 73.7558 143.166C73.5748 143.112 73.4161 143.001 73.3035 142.849C73.0122 141.822 74.9515 132.93 76.3083 127.089C76.9368 125.901 77.5961 124.621 78.2629 123.326L80.4552 123.87C79.3054 128.162 75.0052 142.136 74.3076 143.148ZM92.4898 147.931C92.3119 147.997 92.1173 148.003 91.9359 147.947C91.7545 147.892 91.5963 147.779 91.4856 147.625C91.3706 146.092 93.5399 136.832 96.0848 127.549L99.3885 128.316C96.2764 137.43 93.1106 146.82 92.4898 147.931ZM127.98 149.464C127.841 149.592 127.663 149.668 127.475 149.681C127.287 149.694 127.1 149.641 126.945 149.533C126.278 148.667 124.807 139.3 123.941 133.252C126.524 133.589 126.6 133.429 127.007 133.068C127.551 139.2 128.195 148.506 128.011 149.449L127.98 149.464ZM146.101 147.832C145.964 147.949 145.793 148.018 145.613 148.029C145.433 148.04 145.255 147.993 145.104 147.893C144.215 146.314 141.272 122.253 140.145 112.947C140.743 111.881 141.325 110.831 141.885 109.812H143.065C143.748 115.676 146.331 145.708 146.101 147.816V147.832ZM147.481 106.531C148.04 106.7 147.826 108.999 147.243 109.061C146.139 109.168 144.369 109.244 142.169 109.306C142.812 108.125 143.426 107.006 143.993 105.925C145.171 106.015 146.339 106.213 147.481 106.516V106.531ZM147.289 98.0991C146.522 100.736 130.333 130.447 126.393 132.915C124.776 133.934 81.7813 123.924 78.3626 123.142C78.9375 122.03 79.5201 120.896 80.0796 119.777C94.6437 123.142 125.152 130.569 126.025 130.14C127.03 129.642 143.863 99.1493 145.235 97.2406C145.94 97.4692 146.627 97.7511 147.289 98.0838V98.0991ZM148.937 90.5641C147.983 92.704 147.01 94.835 146.017 96.957C145.718 96.842 145.449 96.75 145.304 96.7117C145.239 96.6813 145.166 96.6724 145.096 96.6861C145.025 96.6999 144.961 96.7357 144.913 96.7884C144.622 97.1103 142.613 100.621 140.007 105.22C139.179 105.182 138.305 105.151 137.401 105.136C137.806 104.66 138.071 104.082 138.167 103.465C138.305 102.637 137.937 99.8468 137.638 97.8385C138.62 97.6469 139.271 97.4016 139.325 97.072C139.532 95.9912 137.462 91.7752 136.841 90.6101C138.06 88.6555 138.919 87.3524 139.141 87.0534C140.881 85.0528 149.221 89.0157 148.937 90.5488V90.5641Z" fill="#F58346"/>
</svg>
