<svg xmlns="http://www.w3.org/2000/svg" version="1.1" width="1920" height="1920" viewBox="0 0 1920 1920">
  <defs>
    <clipPath id="clip_1">
      <path d="M0 1920H1920V0H0Z" />
    </clipPath>
  </defs>
  <g clip-path="url(#clip_1)">
    <path transform="matrix(1,0,0,-1,874.7266,668.9193)" d="M0 0H674.11C713.43 0 715.731 31.129 705.709 48.272L524.571 364.624C498.988 414.704 478.441 414.704 439.12 414.704L-211.523 413.283C-250.843 413.283-271.78 408.691-271.78 369.371L-68.231 29.105C-48.659-1.194-39.32 0 0 0" fill="#a2593e"/>
    <path transform="matrix(1,0,0,-1,1585.4678,990.8113)" d="M0 0C0-319.965-274.069-579.348-612.151-579.348-950.233-579.348-1224.302-319.965-1224.302 0-1224.302 319.965-950.233 579.348-612.151 579.348-274.069 579.348 0 319.965 0 0" fill="#ffca08"/>
    <path transform="matrix(1,0,0,-1,182.5198,1515.7734)" d="M0 0C493.179 60.739 1006.24 69.945 1534.783 10.87 1559.509 8.106 1584.147 5.206 1608.696 2.174 1610.145-77.536 1611.594-157.246 1613.043-236.957 1083.877-194.572 557.79-193.121 34.783-232.609 25.359-233.32 15.938-234.045 6.522-234.783 4.348-156.522 2.174-78.261 0 0" fill="#ffca08"/>
    <path transform="matrix(1,0,0,-1,1442.7723,1014.4703)" d="M0 0C0-220.234-73.582-398.769-241.319-398.769-374.595-398.769-487.218-220.187-482.637 0-479.066 171.692-374.595 398.769-241.319 398.769-108.042 398.769 0 220.234 0 0" fill="#a25743"/>
    <path transform="matrix(1,0,0,-1,1346.4376,1066.4923)" d="M0 0C5.934-186.132-35.285-354.659-148.352-354.659-261.418-354.659-394.022-208.681-386.099 0-379.248 180.449-301.177 326.967-188.11 326.967-75.043 326.967-5.754 180.487 0 0" fill="#ef8349"/>
    <path transform="matrix(1,0,0,-1,1634.1774,1461.0549)" d="M0 0 67.516 222.066 18.462-5.802C18.462-5.802 119.736 23.209 138.725 124.484 157.714 225.758 96 314.374 96 314.374 96 314.374-34.286 246.857-46.945 154.286-59.604 61.714 0 0 0 0" fill="#fdcb08"/>
    <path transform="matrix(1,0,0,-1,596.0898,1078.8583)" d="M0 0C-45.263 28.511-77.897 76.252-77.586 126.971H43.642L29.092-5.799C30.034-5.905 30.973-6.014 31.928-6.107L46.443 137.955H-97.964C-93.432 77.83-66.435 19.731 0 0" fill="#a25337"/>
    <path transform="matrix(1,0,0,-1,833.3779,949.2505)" d="M0 0C.985 2.78 1.886 5.564 2.684 8.347H-147.697L-162.207-134.942C-154.629-133.767-147.079-132.015-139.606-129.762L-125.075-1.055Z" fill="#a25337"/>
    <path transform="matrix(1,0,0,-1,809.5913,803.7655)" d="M0 0C-24.046 31.618-60.509 51.129-104.276 55.848L-119.706-96.523H-94.664L-82.396 31.231C-51.117 27.27-22.792 16.305 0 0" fill="#a25337"/>
    <path transform="matrix(1,0,0,-1,499.5752,900.2883)" d="M0 0H28.393C48.781 66.171 93.613 111.904 159.768 125.327L162.429 151.739C85.507 139.779 13.204 68.285 0 0" fill="#a25337"/>
    <path transform="matrix(1,0,0,-1,809.5913,803.7655)" d="M0 0C-22.792 16.305-51.117 27.27-82.396 31.231L-94.664-96.523H31.216C30.292-57.642 19.035-25.029 0 0" fill="#f58346"/>
    <path transform="matrix(1,0,0,-1,527.9678,900.2883)" d="M0 0H118.748L131.375 125.327C65.22 111.904 20.388 66.171 0 0" fill="#f58346"/>
    <path transform="matrix(1,0,0,-1,518.5034,951.8876)" d="M0 0C-.311-50.719 32.324-98.459 77.586-126.971 86.551-129.633 99.072-131.902 109.515-133.078L122.922 0Z" fill="#f58346"/>
    <path transform="matrix(1,0,0,-1,833.3779,949.2505)" d="M0 0-125.075-1.055-139.606-129.762C-76.944-110.867-19.871-56.111 0 0" fill="#f58346"/>
    <path transform="matrix(1,0,0,-1,1004.0317,1449.0536)" d="M0 0C0 0-14.545-108.166-14.982-121.353-15.419-134.54 1.46-132.43 1.46-132.43 1.46-132.43 7.79-159.858 19.394-159.858 30.999-159.858 37.856-146.144 37.856-146.144 37.856-146.144 38.948-78.662 94.295-18.496 104.671-7.217 130.427-4.386 141.768 .098 197.065 21.959 245.68 109.68 245.68 109.68 245.68 109.68 281.548 174.032 269.944 218.339 258.339 262.647 236.713 299.043 236.713 299.043L223.526 325.416 224.581 344.405C224.581 344.405 250.955 375.197 253.065 400.515 255.174 425.834 298.559 444.427 298.559 444.427 298.559 444.427 270.669 441.065 240.405 425.109 222.789 415.821 229.811 440.735 166.559 415.614 115.592 395.372 120.142 319.087 120.142 319.087 120.142 319.087 113.548 297.988 98.155 288.655 89.972 283.694 22.85 237.841 5.152 86.735-1.705 28.186 0 0 0 0" fill="#a25743"/>
    <path transform="matrix(1,0,0,-1,1109.4505,667.5137)" d="M0 0H-674.11C-713.43 0-716.835 6.051-716.835 45.371L-524.571 364.624C-493.714 414.704-478.441 414.704-439.12 414.704L211.523 413.283C244.978 414.074 286.022 402.898 268.22 367.393L68.231 29.105C48.659-1.194 39.32 0 0 0" fill="#f8823f"/>
  </g>
</svg>
